<svg width="322" height="100" viewBox="0 0 322 100" fill="none" xmlns="http://www.w3.org/2000/svg">
<path d="M112.659 46.6951H101.742V45.3469L105.03 43.0779L102.695 37.4219H92.0082L89.6734 42.9135L95.1322 45.0509L94.3101 46.6951H84.0832V45.3469L87.3716 42.8148L96.316 21.9006L100.624 20.2236L110.127 43.1765L113.481 45.0509L112.659 46.6951ZM97.4669 24.6958L92.8303 35.5475H101.939L97.4669 24.6958Z" fill="#4B4B4B"/>
<path d="M135.405 46.6951H115.148V45.3469L118.24 42.9135V23.5448L114.754 22.4925L115.576 20.8484H126.23V22.1966L123.106 24.63V44.7879H131.163L136.096 37.5863L137.411 38.0795V47.287L135.405 46.6951Z" fill="#4B4B4B"/>
<path d="M154.907 20.5524C157.253 20.5524 159.325 21.1005 161.122 22.1966C162.942 23.2708 164.345 24.7725 165.331 26.7017C166.318 28.6309 166.811 30.8122 166.811 33.2456C166.811 35.7448 166.055 38.0576 164.542 40.1841C163.051 42.2887 161.188 43.9658 158.952 45.2153C156.716 46.443 154.589 47.0568 152.572 47.0568C151.542 47.0568 150.534 47.002 149.547 46.8924C147.859 46.7828 146.577 46.728 145.7 46.728H141.096V45.3798L144.187 42.9464V23.6106L140.701 22.4925L141.523 20.8484H145.667C147.706 20.8484 149.712 20.7826 151.685 20.651C153.131 20.5634 154.206 20.5195 154.907 20.5195V20.5524ZM153.493 44.3932C155.006 44.3932 156.376 43.9877 157.604 43.1765C158.831 42.3435 159.796 41.2035 160.497 39.7566C161.199 38.2878 161.55 36.6436 161.55 34.824C161.55 32.6537 161.21 30.6806 160.53 28.9049C159.873 27.1073 158.853 25.6823 157.472 24.63C156.091 23.5558 154.381 23.0187 152.342 23.0187C151.137 23.0187 150.04 23.3585 149.054 24.0381V43.6369C150.303 44.1192 151.783 44.3604 153.493 44.3604V44.3932Z" fill="#4B4B4B"/>
<path d="M185.599 20.1907C188.011 20.1907 190.137 20.7497 191.979 21.8678C193.842 22.9858 195.278 24.5314 196.286 26.5044C197.295 28.4774 197.799 30.7135 197.799 33.2127C197.799 35.7777 197.032 38.1453 195.497 40.3156C193.963 42.486 192.055 44.2069 189.775 45.4784C187.496 46.728 185.325 47.3528 183.264 47.3528C180.875 47.3528 178.759 46.8047 176.918 45.7086C175.076 44.5906 173.64 43.045 172.61 41.072C171.602 39.0989 171.097 36.8628 171.097 34.3636C171.097 31.7987 171.865 29.4311 173.399 27.2607C174.934 25.0685 176.83 23.3475 179.088 22.0979C181.368 20.8264 183.538 20.1907 185.599 20.1907ZM183.692 23.3475C182.333 23.3475 181.094 23.7531 179.976 24.5642C178.858 25.3754 177.97 26.5044 177.312 27.9513C176.677 29.3982 176.359 31.0095 176.359 32.7852C176.359 34.8679 176.677 36.7751 177.312 38.507C177.97 40.217 178.957 41.5872 180.272 42.6175C181.587 43.6479 183.221 44.1631 185.172 44.1631C186.531 44.1631 187.77 43.7575 188.888 42.9464C190.028 42.1352 190.915 41.0172 191.551 39.5922C192.209 38.1453 192.538 36.534 192.538 34.7583C192.538 32.6537 192.209 30.7464 191.551 29.0365C190.915 27.3046 189.929 25.9234 188.592 24.8931C187.276 23.8627 185.643 23.3475 183.692 23.3475Z" fill="#4B4B4B"/>
<path d="M233.951 46.6951H223.297V45.3469L226.388 42.9135V25.6823L217.838 46.6951H215.635L207.085 25.5508V43.4396L210.604 45.0509L209.781 46.6951H201.758V45.3469L204.849 42.9135V24.1696L201.363 22.4925L202.185 20.8484H210.143L218.068 40.5787L225.96 20.8484H234.346V22.1966L231.222 24.63V43.9658L234.773 45.0509L233.951 46.6951Z" fill="#4B4B4B"/>
<path d="M14.7883 72.805C15.994 72.805 17.3971 72.9694 18.9974 73.2982C20.5978 73.6271 21.7597 73.9778 22.4831 74.3505V80.9602H20.5101C18.5809 77.6279 16.0379 75.9618 12.881 75.9618C11.5218 75.9618 10.2832 76.3674 9.16511 77.1785C8.06898 77.9897 7.19208 79.1187 6.5344 80.5656C5.89864 81.9905 5.58076 83.6019 5.58076 85.3995C5.58076 87.4383 5.89864 89.3017 6.5344 90.9898C7.17015 92.6778 8.13475 94.037 9.42818 95.0674C10.7216 96.0758 12.322 96.58 14.2292 96.58C16.1146 96.58 18.8549 95.2976 22.4502 92.7326L23.5683 94.5412L17.5176 99.2436C16.6407 99.5286 15.7967 99.715 14.9856 99.8027C14.1744 99.9123 13.3085 99.9671 12.3877 99.9671C10.0201 99.9671 7.91552 99.4081 6.07402 98.29C4.25445 97.172 2.84044 95.6374 1.832 93.6863C0.823556 91.7132 0.319336 89.4771 0.319336 86.9779C0.319336 84.413 1.07567 82.0453 2.58833 79.875C4.12291 77.6827 6.01922 75.9618 8.27725 74.7122C10.5572 73.4407 12.7275 72.805 14.7883 72.805Z" fill="#4B4B4B"/>
<path d="M42.021 72.805C44.4325 72.805 46.559 73.364 48.4005 74.482C50.2639 75.6001 51.6999 77.1456 52.7083 79.1187C53.7168 81.0917 54.221 83.3278 54.221 85.827C54.221 88.3919 53.4537 90.7596 51.9191 92.9299C50.3845 95.1003 48.4772 96.8212 46.1973 98.0927C43.9173 99.3423 41.747 99.9671 39.6863 99.9671C37.2967 99.9671 35.1812 99.419 33.3397 98.3229C31.4982 97.2048 30.0622 95.6593 29.0319 93.6863C28.0234 91.7132 27.5192 89.4771 27.5192 86.9779C27.5192 84.413 28.2865 82.0453 29.8211 79.875C31.3557 77.6827 33.252 75.9618 35.51 74.7122C37.79 73.4407 39.9603 72.805 42.021 72.805ZM40.1138 75.9618C38.7546 75.9618 37.5159 76.3674 36.3979 77.1785C35.2798 77.9897 34.392 79.1187 33.7343 80.5656C33.0985 82.0125 32.7807 83.6238 32.7807 85.3995C32.7807 87.4822 33.0985 89.3894 33.7343 91.1213C34.392 92.8313 35.3785 94.2014 36.6938 95.2318C38.0092 96.2622 39.6424 96.7774 41.5935 96.7774C42.9527 96.7774 44.1914 96.3718 45.3094 95.5606C46.4494 94.7495 47.3373 93.6315 47.973 92.2065C48.6307 90.7596 48.9595 89.1483 48.9595 87.3725C48.9595 85.268 48.6307 83.3607 47.973 81.6507C47.3373 79.9189 46.3508 78.5377 45.0135 77.5074C43.6981 76.477 42.0649 75.9618 40.1138 75.9618Z" fill="#4B4B4B"/>
<path d="M81.2641 77.3101V99.3094H79.028L63.5068 80.4012V95.9224L67.4529 97.6652L66.6308 99.3094H58.1796V97.9612L61.2707 95.462V77.0141L57.785 75.1068L58.6071 73.4626H63.9014L79.028 91.8448V76.7839L75.1149 75.1068L75.937 73.4626H84.3881V74.8109L81.2641 77.3101Z" fill="#4B4B4B"/>
<path d="M101.448 93.6534C101.448 92.9738 101.174 92.338 100.626 91.7461C100.1 91.1542 99.442 90.6171 98.6528 90.1348C97.8636 89.6306 96.7675 89.0058 95.3644 88.2604C93.7202 87.3835 92.3939 86.6272 91.3855 85.9914C90.377 85.3337 89.5111 84.5774 88.7876 83.7224C88.0861 82.8455 87.7353 81.8809 87.7353 80.8286C87.7353 79.7325 88.2067 78.5596 89.1494 77.3101C90.1139 76.0385 91.2868 74.9753 92.6679 74.1203C94.0491 73.2434 95.3206 72.805 96.4825 72.805C97.8855 72.805 99.5188 72.9694 101.382 73.2982C103.268 73.6271 104.638 73.9778 105.493 74.3505V81.0588H103.52C102.511 79.2831 101.393 77.902 100.165 76.9155C98.9597 75.9289 97.6882 75.4357 96.3509 75.4357C95.2329 75.4357 94.356 75.7864 93.7202 76.488C93.0845 77.1676 92.7666 78.0554 92.7666 79.1516C92.7666 79.875 93.0406 80.5546 93.5887 81.1904C94.1367 81.8042 94.8164 82.3632 95.6275 82.8674C96.4606 83.3717 97.5786 83.9855 98.9817 84.7089C100.582 85.542 101.886 86.2764 102.895 86.9122C103.903 87.5479 104.747 88.2933 105.427 89.1483C106.128 90.0033 106.479 90.9459 106.479 91.9763C106.479 93.0724 105.964 94.2562 104.934 95.5278C103.925 96.7773 102.687 97.8406 101.218 98.7175C99.7489 99.5725 98.4117 100 97.2059 100C95.7371 100 93.9833 99.8356 91.9445 99.5067C89.9276 99.1779 88.4698 98.8271 87.5709 98.4544V91.7461H89.5768C90.6291 93.5218 91.8349 94.903 93.1941 95.8895C94.5533 96.876 95.9454 97.3693 97.3703 97.3693C98.598 97.3693 99.5845 97.0075 100.33 96.2841C101.075 95.5387 101.448 94.6618 101.448 93.6534Z" fill="#4B4B4B"/>
<path d="M134.009 81.4206L132.694 81.9138L128.222 75.337H124.605V96.58L128.123 97.6652L127.301 99.3094H116.647V97.9612L119.738 95.5278V75.337H116.219L111.747 81.9138L110.432 81.4206V72.8707L112.438 73.4626H132.004L134.009 72.8707V81.4206Z" fill="#4B4B4B"/>
<path d="M162.32 99.3094H155.776L148.903 87.7672L147.423 86.7149L148.015 85.4982H149.758C151.117 85.4982 152.191 85.1255 152.981 84.3801C153.77 83.6347 154.164 82.6044 154.164 81.289C154.164 79.6229 153.704 78.2527 152.783 77.1785C151.885 76.1043 150.569 75.5672 148.837 75.5672C147.697 75.5672 146.656 75.907 145.713 76.5866V96.5472L149.232 97.6652L148.41 99.3094H137.755V97.9612L140.846 95.462V76.1591L137.361 75.1068L138.183 73.4626H142.655C144.606 73.4626 146.524 73.3969 148.41 73.2653C149.813 73.1776 150.843 73.1338 151.501 73.1338C153.057 73.1338 154.439 73.4298 155.644 74.0217C156.85 74.6136 157.782 75.4247 158.439 76.4551C159.097 77.4635 159.426 78.5816 159.426 79.8092C159.426 81.4096 158.735 82.8784 157.354 84.2157C155.973 85.553 154.307 86.5395 152.356 87.1752L154.724 87.9316L159.492 95.9224L163.142 97.6652L162.32 99.3094Z" fill="#4B4B4B"/>
<path d="M188.667 77.2443V89.1154C188.667 91.4173 188.108 93.3903 186.99 95.0345C185.872 96.6787 184.48 97.9173 182.814 98.7504C181.169 99.5615 179.558 99.9671 177.98 99.9671C175.963 99.9671 174.154 99.5396 172.554 98.6846C170.975 97.8077 169.737 96.6129 168.838 95.1003C167.939 93.5657 167.49 91.8448 167.49 89.9375V76.1591L164.004 75.1068L164.826 73.4626H175.48V74.8109L172.356 77.2443V88.5235C172.356 91.1323 173.003 93.1601 174.297 94.607C175.612 96.0539 177.585 96.7774 180.216 96.7774C181.202 96.7774 182.178 96.4704 183.142 95.8566C184.107 95.2208 184.896 94.3001 185.51 93.0943C186.146 91.8886 186.464 90.4746 186.464 88.8523V76.7182L182.879 75.1068L183.701 73.4626H191.791V74.8109L188.667 77.2443Z" fill="#4B4B4B"/>
<path d="M209.234 72.805C210.439 72.805 211.843 72.9694 213.443 73.2982C215.043 73.6271 216.205 73.9778 216.929 74.3505V80.9602H214.956C213.026 77.6279 210.483 75.9618 207.326 75.9618C205.967 75.9618 204.729 76.3674 203.611 77.1785C202.514 77.9897 201.638 79.1187 200.98 80.5656C200.344 81.9905 200.026 83.6019 200.026 85.3995C200.026 87.4383 200.344 89.3017 200.98 90.9898C201.616 92.6778 202.58 94.037 203.874 95.0674C205.167 96.0758 206.767 96.58 208.675 96.58C210.56 96.58 213.3 95.2976 216.896 92.7326L218.014 94.5412L211.963 99.2436C211.086 99.5286 210.242 99.715 209.431 99.8027C208.62 99.9123 207.754 99.9671 206.833 99.9671C204.466 99.9671 202.361 99.4081 200.52 98.29C198.7 97.172 197.286 95.6374 196.277 93.6863C195.269 91.7132 194.765 89.4771 194.765 86.9779C194.765 84.413 195.521 82.0453 197.034 79.875C198.568 77.6827 200.465 75.9618 202.723 74.7122C205.003 73.4407 207.173 72.805 209.234 72.805Z" fill="#4B4B4B"/>
<path d="M245.378 81.4206L244.063 81.9138L239.59 75.337H235.973V96.58L239.492 97.6652L238.67 99.3094H228.015V97.9612L231.106 95.5278V75.337H227.588L223.116 81.9138L221.8 81.4206V72.8707L223.806 73.4626H243.372L245.378 72.8707V81.4206Z" fill="#4B4B4B"/>
<path d="M259.811 99.3094H249.157V97.9612L252.248 95.462V76.192L248.762 75.1068L249.584 73.4626H260.239V74.8109L257.115 77.3101V96.5472L260.633 97.6652L259.811 99.3094Z" fill="#4B4B4B"/>
<path d="M278.695 72.805C281.107 72.805 283.233 73.364 285.075 74.482C286.938 75.6001 288.374 77.1456 289.383 79.1187C290.391 81.0917 290.895 83.3278 290.895 85.827C290.895 88.3919 290.128 90.7596 288.593 92.9299C287.059 95.1003 285.152 96.8212 282.872 98.0927C280.592 99.3423 278.421 99.9671 276.361 99.9671C273.971 99.9671 271.856 99.419 270.014 98.3229C268.173 97.2048 266.737 95.6593 265.706 93.6863C264.698 91.7132 264.194 89.4771 264.194 86.9779C264.194 84.413 264.961 82.0453 266.495 79.875C268.03 77.6827 269.926 75.9618 272.184 74.7122C274.464 73.4407 276.635 72.805 278.695 72.805ZM276.788 75.9618C275.429 75.9618 274.19 76.3674 273.072 77.1785C271.954 77.9897 271.066 79.1187 270.409 80.5656C269.773 82.0125 269.455 83.6238 269.455 85.3995C269.455 87.4822 269.773 89.3894 270.409 91.1213C271.066 92.8313 272.053 94.2014 273.368 95.2318C274.684 96.2622 276.317 96.7774 278.268 96.7774C279.627 96.7774 280.866 96.3718 281.984 95.5606C283.124 94.7495 284.012 93.6315 284.647 92.2065C285.305 90.7596 285.634 89.1483 285.634 87.3725C285.634 85.268 285.305 83.3607 284.647 81.6507C284.012 79.9189 283.025 78.5377 281.688 77.5074C280.372 76.477 278.739 75.9618 276.788 75.9618Z" fill="#4B4B4B"/>
<path d="M317.939 77.3101V99.3094H315.702L300.181 80.4012V95.9224L304.127 97.6652L303.305 99.3094H294.854V97.9612L297.945 95.462V77.0141L294.459 75.1068L295.281 73.4626H300.576L315.702 91.8448V76.7839L311.789 75.1068L312.611 73.4626H321.062V74.8109L317.939 77.3101Z" fill="#4B4B4B"/>
<path d="M32.4549 14.4805L32.4736 13.6736L31.7428 14.0162L15.1462 21.7967L14.9383 21.8942L14.8768 22.1154L6.75276 51.3194L6.40054 52.5855L7.50528 51.8737L15.9354 46.442L16.1122 46.328L16.1544 46.122L17.8129 38.0242L24.9997 33.7899L24.3981 40.0256L24.299 41.053L25.1666 40.4939L31.7323 36.2634L31.9553 36.1197L31.9614 35.8546L32.4549 14.4805ZM17.1138 37.2754L16.9224 37.3882L16.8778 37.6059L15.2169 45.7153L8.06839 50.3213L15.7786 22.6047L31.4366 15.2642L30.9678 35.5664L25.4926 39.0943L26.0893 32.9088L26.1836 31.9317L25.3378 32.43L17.1138 37.2754ZM34.0508 14.0162L33.32 13.6736L33.3386 14.4805L33.8322 35.8548L33.8383 36.1199L34.0613 36.2635L58.2883 51.8737L59.3931 52.5855L59.0408 51.3194L56.2264 41.2026L56.1723 41.0082L55.9985 40.9058L40.6054 31.8362L39.7158 22.6143L51.8915 28.7396L52.9006 29.2473L52.5979 28.1589L50.9168 22.1155L50.8553 21.8942L50.6474 21.7967L34.0508 14.0162ZM39.6345 32.1857L39.659 32.4392L39.8784 32.5685L55.3171 41.6649L57.7252 50.3213L34.8258 35.5665L34.357 15.2642L50.015 22.6047L51.3317 27.3386L39.3558 21.3138L38.5464 20.9066L38.6334 21.8084L39.6345 32.1857ZM27.1602 21.8084L27.2472 20.9066L26.4378 21.3138L19.716 24.6954L19.4995 24.8043L19.4509 25.0417L18.4321 30.0157L18.2167 31.0677L19.1605 30.5555L26.4781 26.584L26.7117 26.4572L26.7373 26.1926L27.1602 21.8084ZM20.3819 25.4798L26.0778 22.6143L25.7674 25.8319L19.6273 29.1643L20.3819 25.4798ZM0.5 0.5H65.2679V65.2679H0.5V0.5Z" stroke="#4B4B4B"/>
</svg>
