<?xml version="1.0" encoding="UTF-8" standalone="no"?>
<svg
   xmlns:dc="http://purl.org/dc/elements/1.1/"
   xmlns:cc="http://creativecommons.org/ns#"
   xmlns:rdf="http://www.w3.org/1999/02/22-rdf-syntax-ns#"
   xmlns:svg="http://www.w3.org/2000/svg"
   xmlns="http://www.w3.org/2000/svg"
   xmlns:sodipodi="http://sodipodi.sourceforge.net/DTD/sodipodi-0.dtd"
   xmlns:inkscape="http://www.inkscape.org/namespaces/inkscape"
   inkscape:version="1.0 (4035a4fb49, 2020-05-01)"
   sodipodi:docname="Vector.svg"
   id="svg149"
   version="1.1"
   fill="none"
   viewBox="0 0 500 164.15717"
   height="164.15717"
   width="500">
  <metadata
     id="metadata155">
    <rdf:RDF>
      <cc:Work
         rdf:about="">
        <dc:format>image/svg+xml</dc:format>
        <dc:type
           rdf:resource="http://purl.org/dc/dcmitype/StillImage" />
      </cc:Work>
    </rdf:RDF>
  </metadata>
  <defs
     id="defs153" />
  <sodipodi:namedview
     inkscape:current-layer="svg149"
     inkscape:window-maximized="1"
     inkscape:window-y="0"
     inkscape:window-x="0"
     inkscape:cy="236.62023"
     inkscape:cx="721.5"
     inkscape:zoom="0.30357079"
     showgrid="false"
     id="namedview151"
     inkscape:window-height="671"
     inkscape:window-width="1366"
     inkscape:pageshadow="2"
     inkscape:pageopacity="0"
     guidetolerance="10"
     gridtolerance="10"
     objecttolerance="10"
     borderopacity="1"
     bordercolor="#666666"
     pagecolor="#ffffff" />
  <mask
     fill="#000000"
     height="475"
     width="1443"
     y="0"
     x="0"
     maskUnits="userSpaceOnUse"
     id="path-1-outside-1">
    <rect
       y="0"
       x="0"
       id="rect2"
       height="475"
       width="1443"
       fill="#ffffff" />
    <path
       id="path4"
       d="M 103.106,77.5023 H 68.2588 V 72.2564 L 78.4694,66.1675 72.7552,52.2099 H 43.8096 l -5.1521,12.5525 14.3323,6.651 -2.9976,6.0889 H 19.735 V 72.2564 L 29.852,64.6687 53.8328,6.87112 70.0387,2.09367 96.6424,66.6359 106.197,71.4134 Z M 58.4229,16.8944 46.8072,44.9969 h 23.0441 z" />
    <path
       id="path6"
       d="m 169.898,77.5023 h -59.765 v -5.2459 l 8.806,-6.9319 V 12.679 l -10.398,-2.7166 3.091,-6.08889 h 33.161 v 5.24581 l -8.899,6.93198 v 54.3316 h 21.077 l 14.519,-20.9832 5.153,2.1545 v 27.6342 z" />
    <path
       id="path8"
       d="m 225.529,2.93675 c 6.995,0 13.177,1.56126 18.548,4.68377 5.433,3.06008 9.617,7.33788 12.553,12.83348 2.997,5.4956 4.496,11.7094 4.496,18.6414 0,7.1193 -2.248,13.7078 -6.745,19.7655 -4.434,5.9952 -9.961,10.7726 -16.58,14.3323 -6.62,3.4972 -12.927,5.2458 -18.923,5.2458 -2.872,0 -5.714,-0.1561 -8.524,-0.4684 -4.684,-0.3122 -8.275,-0.4683 -10.773,-0.4683 h -14.8 v -5.2459 l 8.805,-6.9319 V 13.1474 l -10.398,-3.185 3.091,-6.08889 h 13.209 c 5.745,0 11.366,-0.18735 16.861,-0.56206 4.247,-0.2498 7.307,-0.3747 9.18,-0.3747 z m -3.934,66.79045 c 3.934,0 7.494,-1.1241 10.679,-3.3723 3.247,-2.2482 5.777,-5.3707 7.588,-9.3675 1.873,-3.9968 2.81,-8.4932 2.81,-13.4893 0,-5.9952 -0.906,-11.3971 -2.717,-16.2058 -1.748,-4.8711 -4.465,-8.743 -8.149,-11.6157 -3.623,-2.9352 -8.119,-4.4027 -13.49,-4.4027 -2.81,0 -5.402,0.7494 -7.775,2.2482 v 54.4253 c 3.185,1.1865 6.839,1.7798 10.96,1.7798 z" />
    <path
       id="path10"
       d="m 314.795,2 c 7.181,0 13.52,1.59248 19.016,4.77744 5.495,3.18496 9.742,7.58766 12.739,13.20826 2.998,5.6205 4.497,11.9904 4.497,19.1097 0,7.3067 -2.28,14.0513 -6.838,20.2339 -4.559,6.1825 -10.211,11.0849 -16.956,14.707 -6.682,3.5596 -13.052,5.3395 -19.109,5.3395 -7.182,0 -13.521,-1.5613 -19.016,-4.6838 -5.434,-3.185 -9.68,-7.5877 -12.74,-13.2082 -2.998,-5.6205 -4.497,-11.9904 -4.497,-19.1098 0,-7.3066 2.248,-14.0513 6.745,-20.2338 4.559,-6.245 10.21,-11.1474 16.955,-14.70703 C 302.336,3.81106 308.737,2 314.795,2 Z m -5.434,10.7727 c -3.497,0 -6.713,1.0928 -9.648,3.2786 -2.873,2.1857 -5.152,5.1834 -6.838,8.9928 -1.687,3.8095 -2.53,8.0873 -2.53,12.8335 0,5.6205 0.843,10.7727 2.53,15.4564 1.748,4.6214 4.34,8.3371 7.775,11.1474 3.497,2.7478 7.806,4.1217 12.927,4.1217 3.435,0 6.588,-1.0929 9.461,-3.2786 2.935,-2.1858 5.246,-5.1834 6.932,-8.9929 1.686,-3.8094 2.529,-8.0872 2.529,-12.8335 0,-5.6829 -0.843,-10.8351 -2.529,-15.4564 -1.686,-4.6213 -4.278,-8.3059 -7.775,-11.0537 -3.435,-2.8102 -7.713,-4.2153 -12.834,-4.2153 z" />
    <path
       id="path12"
       d="m 457.084,77.877 h -33.161 v -5.2459 l 8.805,-6.9319 V 20.7351 l -23.231,57.0482 h -8.15 L 377.741,20.2667 V 67.479 l 10.398,4.1217 -2.998,6.0889 h -24.262 v -5.2458 l 8.806,-6.932 v -51.053 l -10.398,-4.4027 3.091,-6.08892 h 26.323 l 21.358,52.08342 21.17,-52.08342 h 27.353 V 9.213 l -8.899,6.932 v 52.5518 l 10.398,3.0913 z" />
    <path
       id="path14"
       d="m 537.267,2 c 3.622,0 7.837,0.46838 12.646,1.40513 4.871,0.93675 8.431,1.93596 10.679,2.99761 V 26.3556 h -8.899 c -4.809,-9.0553 -11.429,-13.5829 -19.859,-13.5829 -3.435,0 -6.589,1.0928 -9.462,3.2786 -2.872,2.1857 -5.152,5.1834 -6.838,8.9928 -1.624,3.8095 -2.436,8.0873 -2.436,12.8335 0,5.3707 0.812,10.3043 2.436,14.8007 1.686,4.434 4.215,7.9936 7.588,10.679 3.372,2.6229 7.556,3.9344 12.552,3.9344 5.683,0 13.77,-3.1226 24.262,-9.3676 l 3.747,5.9952 -17.236,13.3956 c -2.748,0.8119 -5.402,1.3427 -7.963,1.5925 -2.498,0.3122 -5.183,0.4684 -8.056,0.4684 -6.994,0 -13.208,-1.5925 -18.641,-4.7775 -5.433,-3.1849 -9.649,-7.5564 -12.646,-13.1145 -2.998,-5.6205 -4.497,-11.9904 -4.497,-19.1098 0,-7.3066 2.249,-14.0513 6.745,-20.2338 4.496,-6.245 10.086,-11.1474 16.768,-14.70703 C 524.839,3.81106 531.209,2 537.267,2 Z" />
    <path
       id="path16"
       d="m 615.946,2 c 7.182,0 13.52,1.59248 19.016,4.77744 5.496,3.18496 9.742,7.58766 12.74,13.20826 2.997,5.6205 4.496,11.9904 4.496,19.1097 0,7.3067 -2.279,14.0513 -6.838,20.2339 -4.559,6.1825 -10.211,11.0849 -16.955,14.707 -6.683,3.5596 -13.052,5.3395 -19.11,5.3395 -7.182,0 -13.521,-1.5613 -19.016,-4.6838 -5.433,-3.185 -9.68,-7.5877 -12.74,-13.2082 -2.998,-5.6205 -4.496,-11.9904 -4.496,-19.1098 0,-7.3066 2.248,-14.0513 6.744,-20.2338 4.559,-6.245 10.211,-11.1474 16.955,-14.70703 C 603.487,3.81106 609.888,2 615.946,2 Z m -5.433,10.7727 c -3.498,0 -6.714,1.0928 -9.649,3.2786 -2.873,2.1857 -5.152,5.1834 -6.838,8.9928 -1.686,3.8095 -2.529,8.0873 -2.529,12.8335 0,5.6205 0.843,10.7727 2.529,15.4564 1.748,4.6214 4.34,8.3371 7.775,11.1474 3.497,2.7478 7.806,4.1217 12.927,4.1217 3.435,0 6.589,-1.0929 9.461,-3.2786 2.935,-2.1858 5.246,-5.1834 6.932,-8.9929 1.686,-3.8094 2.529,-8.0872 2.529,-12.8335 0,-5.6829 -0.843,-10.8351 -2.529,-15.4564 -1.686,-4.6213 -4.278,-8.3059 -7.775,-11.0537 -3.435,-2.8102 -7.712,-4.2153 -12.833,-4.2153 z" />
    <path
       id="path18"
       d="m 730.882,16.6133 v 60.889 h -8.056 L 678.892,27.386 v 39.0626 l 13.302,4.9648 -2.998,6.0889 H 662.03 v -5.2459 l 8.806,-7.4003 V 15.6766 l -10.398,-5.7142 3.091,-6.08889 h 16.487 l 42.81,48.71109 V 14.8335 l -13.302,-4.8711 3.091,-6.08889 h 27.166 v 5.24581 z" />
    <path
       id="path20"
       d="m 785.346,62.0458 c 0,-1.8735 -0.75,-3.6533 -2.248,-5.3395 -1.437,-1.6861 -3.279,-3.2474 -5.527,-4.6837 -2.248,-1.4364 -5.246,-3.185 -8.993,-5.2458 -4.621,-2.5605 -8.4,-4.8087 -11.335,-6.7446 -2.873,-1.936 -5.308,-4.1842 -7.306,-6.7447 -1.999,-2.5604 -2.998,-5.3707 -2.998,-8.4307 0,-3.1225 1.436,-6.4636 4.309,-10.0233 2.873,-3.6221 6.37,-6.65093 10.492,-9.08649 C 765.924,3.249 769.764,2 773.262,2 c 4.184,0 9.086,0.46838 14.707,1.40513 5.62,0.93675 9.742,1.93596 12.365,2.99761 V 26.9176 h -8.806 c -2.623,-5.0584 -5.526,-8.9928 -8.711,-11.8031 -3.123,-2.8102 -6.433,-4.2153 -9.93,-4.2153 -2.498,0 -4.465,0.8118 -5.902,2.4355 -1.436,1.5613 -2.154,3.5597 -2.154,5.9952 0,1.9984 0.749,3.9032 2.248,5.7142 1.561,1.7486 3.466,3.3723 5.714,4.8711 2.311,1.4364 5.402,3.2162 9.274,5.3395 4.559,2.498 8.244,4.6838 11.054,6.5573 2.81,1.8735 5.183,4.0592 7.119,6.5573 1.936,2.498 2.904,5.2458 2.904,8.2434 0,3.1225 -1.53,6.4948 -4.59,10.1169 -3.06,3.5597 -6.807,6.5885 -11.241,9.0865 -4.372,2.4356 -8.368,3.6533 -11.99,3.6533 -4.372,0 -9.618,-0.4683 -15.738,-1.4051 -6.058,-0.9367 -10.429,-1.9359 -13.114,-2.9976 V 54.5518 h 8.805 c 2.748,5.0585 5.933,8.9928 9.555,11.8031 3.622,2.8103 7.275,4.2154 10.96,4.2154 2.873,0 5.183,-0.8119 6.932,-2.4356 1.748,-1.6861 2.623,-3.7158 2.623,-6.0889 z" />
    <path
       id="path22"
       d="m 882.318,27.948 -5.152,2.0609 -13.208,-19.0161 h -8.712 v 57.704 l 10.491,2.7166 -3.091,6.0889 h -33.161 v -5.2459 l 8.806,-6.9319 V 10.9928 h -8.337 L 816.745,30.0089 811.593,27.948 V 2.18735 l 6.745,1.68616 h 57.235 l 6.745,-1.68616 z" />
    <path
       id="path24"
       d="m 963.509,77.5023 h -20.328 l -18.079,-32.4117 -4.122,-2.5292 2.342,-4.5901 h 4.309 c 3.373,0 6.027,-1.0304 7.963,-3.0913 1.936,-2.0608 2.903,-4.9648 2.903,-8.7118 0,-4.3715 -1.186,-7.9312 -3.559,-10.679 -2.311,-2.8102 -5.714,-4.2153 -10.211,-4.2153 -2.81,0 -5.433,0.8743 -7.868,2.6229 v 54.6126 l 10.397,2.9976 -2.997,6.0889 h -33.161 v -5.2458 l 8.805,-7.4003 V 12.96 l -10.398,-2.9039 3.092,-6.08892 h 15.55 c 5.433,0 10.772,-0.18735 16.018,-0.56205 3.747,-0.2498 6.557,-0.3747 8.431,-0.3747 4.809,0 9.055,0.8743 12.74,2.62291 3.747,1.68615 6.62,3.99681 8.618,6.93196 2.061,2.9352 3.091,6.2138 3.091,9.8359 0,4.3715 -1.936,8.4308 -5.808,12.1778 -3.872,3.747 -8.587,6.5573 -14.145,8.4308 l 7.494,2.1545 12.178,21.7327 9.742,4.4964 z" />
    <path
       id="path26"
       d="m 1039.45,16.0513 v 32.4116 c 0,6.5573 -1.66,12.1778 -4.97,16.8616 -3.24,4.6837 -7.3,8.2122 -12.17,10.5853 -4.81,2.3106 -9.5,3.466 -14.05,3.466 -6,0 -11.402,-1.2178 -16.21,-3.6534 -4.747,-2.498 -8.462,-5.9015 -11.148,-10.2106 -2.623,-4.3715 -3.934,-9.2738 -3.934,-14.707 V 12.679 l -10.304,-2.7166 2.997,-6.08889 h 33.159 v 5.24581 l -8.897,6.93198 v 31.3812 c 0,6.6822 1.718,11.8968 5.152,15.6438 3.435,3.6845 8.615,5.5268 15.555,5.5268 2.62,0 5.21,-0.7806 7.77,-2.3419 2.56,-1.6237 4.68,-3.9656 6.37,-7.0256 1.69,-3.0601 2.53,-6.6822 2.53,-10.8663 V 14.1778 l -10.87,-4.2154 3,-6.08889 h 24.92 v 5.24581 z" />
    <path
       id="path28"
       d="m 1098.04,2 c 3.62,0 7.83,0.46838 12.64,1.40513 4.87,0.93675 8.43,1.93596 10.68,2.99761 V 26.3556 h -8.9 c -4.81,-9.0553 -11.42,-13.5829 -19.86,-13.5829 -3.43,0 -6.58,1.0928 -9.46,3.2786 -2.87,2.1857 -5.15,5.1834 -6.84,8.9928 -1.62,3.8095 -2.43,8.0873 -2.43,12.8335 0,5.3707 0.81,10.3043 2.43,14.8007 1.69,4.434 4.22,7.9936 7.59,10.679 3.37,2.6229 7.56,3.9344 12.55,3.9344 5.69,0 13.78,-3.1226 24.27,-9.3676 l 3.74,5.9952 -17.23,13.3956 c -2.75,0.8119 -5.4,1.3427 -7.96,1.5925 -2.5,0.3122 -5.19,0.4684 -8.06,0.4684 -7,0 -13.21,-1.5925 -18.64,-4.7775 -5.44,-3.1849 -9.65,-7.5564 -12.65,-13.1145 -3,-5.6205 -4.49,-11.9904 -4.49,-19.1098 0,-7.3066 2.24,-14.0513 6.74,-20.2338 4.5,-6.245 10.09,-11.1474 16.77,-14.70703 C 1085.61,3.81106 1091.98,2 1098.04,2 Z" />
    <path
       id="path30"
       d="m 1203.32,27.948 -5.15,2.0609 -13.21,-19.0161 h -8.71 v 57.704 l 10.49,2.7166 -3.09,6.0889 h -33.16 v -5.2459 l 8.8,-6.9319 V 10.9928 h -8.33 l -13.21,19.0161 -5.15,-2.0609 V 2.18735 l 6.74,1.68616 h 57.24 l 6.74,-1.68616 z" />
    <path
       id="path32"
       d="m 1245.17,77.4086 h -33.16 v -5.2458 l 8.8,-7.4004 V 12.8663 l -10.4,-2.99758 3.1,-6.08889 h 33.16 v 5.24582 l -8.9,7.49405 v 51.8961 l 10.4,2.9039 z" />
    <path
       id="path34"
       d="m 1299.39,2 c 7.18,0 13.52,1.59248 19.02,4.77744 5.49,3.18496 9.74,7.58766 12.74,13.20826 2.99,5.6205 4.49,11.9904 4.49,19.1097 0,7.3067 -2.28,14.0513 -6.84,20.2339 -4.55,6.1825 -10.21,11.0849 -16.95,14.707 -6.68,3.5596 -13.05,5.3395 -19.11,5.3395 -7.18,0 -13.52,-1.5613 -19.02,-4.6838 -5.43,-3.185 -9.68,-7.5877 -12.74,-13.2082 -2.99,-5.6205 -4.49,-11.9904 -4.49,-19.1098 0,-7.3066 2.25,-14.0513 6.74,-20.2338 4.56,-6.245 10.21,-11.1474 16.96,-14.70703 C 1286.93,3.81106 1293.33,2 1299.39,2 Z m -5.43,10.7727 c -3.5,0 -6.72,1.0928 -9.65,3.2786 -2.87,2.1857 -5.15,5.1834 -6.84,8.9928 -1.69,3.8095 -2.53,8.0873 -2.53,12.8335 0,5.6205 0.84,10.7727 2.53,15.4564 1.75,4.6214 4.34,8.3371 7.78,11.1474 3.49,2.7478 7.8,4.1217 12.92,4.1217 3.44,0 6.59,-1.0929 9.46,-3.2786 2.94,-2.1858 5.25,-5.1834 6.94,-8.9929 1.68,-3.8094 2.53,-8.0872 2.53,-12.8335 0,-5.6829 -0.85,-10.8351 -2.53,-15.4564 -1.69,-4.6213 -4.28,-8.3059 -7.78,-11.0537 -3.43,-2.8102 -7.71,-4.2153 -12.83,-4.2153 z" />
    <path
       id="path36"
       d="m 1414.33,16.6133 v 60.889 h -8.06 L 1362.34,27.386 v 39.0626 l 13.3,4.9648 -3,6.0889 h -27.16 v -5.2459 l 8.8,-7.4003 V 15.6766 l -10.4,-5.7142 3.09,-6.08889 h 16.49 l 42.81,48.71109 V 14.8335 l -13.3,-4.8711 3.09,-6.08889 h 27.17 v 5.24581 z" />
    <path
       id="path38"
       d="M 84.371,340.131 H 49.5238 v -5.246 l 10.2106,-6.088 -5.7142,-13.958 H 25.0745 l -5.1521,12.552 14.3323,6.651 -2.9976,6.089 H 1 v -5.246 l 10.1169,-7.587 23.9809,-57.798 16.2058,-4.777 26.6038,64.542 9.5549,4.777 z M 39.6879,279.523 28.0721,307.626 h 23.0442 z" />
    <path
       id="path40"
       d="M 151.163,340.131 H 91.3981 v -5.246 l 8.8059,-6.932 v -52.645 l -10.3984,-2.717 3.0913,-6.088 h 33.1611 v 5.245 l -8.899,6.932 v 54.332 h 21.077 l 14.519,-20.983 5.153,2.154 v 27.634 z" />
    <path
       id="path42"
       d="m 206.794,265.566 c 6.995,0 13.177,1.561 18.548,4.684 5.433,3.06 9.617,7.337 12.552,12.833 2.998,5.496 4.497,11.709 4.497,18.641 0,7.12 -2.248,13.708 -6.745,19.766 -4.434,5.995 -9.961,10.773 -16.58,14.332 -6.62,3.497 -12.927,5.246 -18.923,5.246 -2.872,0 -5.714,-0.156 -8.524,-0.468 -4.684,-0.313 -8.275,-0.469 -10.773,-0.469 h -14.8 v -5.246 l 8.805,-6.932 v -52.177 l -10.398,-3.185 3.091,-6.088 h 13.209 c 5.745,0 11.365,-0.188 16.861,-0.563 4.247,-0.249 7.307,-0.374 9.18,-0.374 z m -3.934,66.79 c 3.934,0 7.494,-1.124 10.679,-3.372 3.247,-2.248 5.777,-5.371 7.588,-9.368 1.873,-3.996 2.81,-8.493 2.81,-13.489 0,-5.995 -0.906,-11.397 -2.717,-16.206 -1.748,-4.871 -4.465,-8.743 -8.149,-11.615 -3.623,-2.936 -8.119,-4.403 -13.49,-4.403 -2.81,0 -5.402,0.749 -7.775,2.248 v 54.425 c 3.185,1.187 6.839,1.78 10.96,1.78 z" />
    <path
       id="path44"
       d="m 296.059,264.629 c 7.182,0 13.521,1.592 19.017,4.777 5.495,3.185 9.742,7.588 12.739,13.209 2.998,5.62 4.497,11.99 4.497,19.109 0,7.307 -2.28,14.052 -6.839,20.234 -4.558,6.183 -10.21,11.085 -16.955,14.707 -6.682,3.56 -13.052,5.34 -19.109,5.34 -7.182,0 -13.521,-1.561 -19.017,-4.684 -5.433,-3.185 -9.679,-7.588 -12.739,-13.208 -2.998,-5.621 -4.497,-11.991 -4.497,-19.11 0,-7.307 2.248,-14.051 6.745,-20.234 4.559,-6.245 10.21,-11.147 16.955,-14.707 6.745,-3.622 13.146,-5.433 19.203,-5.433 z m -5.433,10.773 c -3.497,0 -6.713,1.093 -9.648,3.278 -2.873,2.186 -5.152,5.184 -6.839,8.993 -1.686,3.81 -2.529,8.087 -2.529,12.834 0,5.62 0.843,10.772 2.529,15.456 1.749,4.621 4.341,8.337 7.776,11.147 3.497,2.748 7.806,4.122 12.927,4.122 3.434,0 6.588,-1.093 9.461,-3.279 2.935,-2.185 5.246,-5.183 6.932,-8.992 1.686,-3.81 2.529,-8.088 2.529,-12.834 0,-5.683 -0.843,-10.835 -2.529,-15.456 -1.686,-4.622 -4.278,-8.306 -7.775,-11.054 -3.435,-2.81 -7.713,-4.215 -12.834,-4.215 z" />
    <path
       id="path46"
       d="m 438.349,340.506 h -33.162 v -5.246 l 8.806,-6.932 v -44.964 l -23.232,57.048 h -8.149 l -23.606,-57.516 v 47.212 l 10.398,4.122 -2.998,6.089 h -24.262 v -5.246 l 8.806,-6.932 v -51.053 l -10.398,-4.403 3.091,-6.089 h 26.323 l 21.358,52.084 21.17,-52.084 h 27.353 v 5.246 l -8.899,6.932 v 52.552 l 10.398,3.091 z" />
    <path
       id="path48"
       d="m 518.532,264.629 c 3.622,0 7.837,0.468 12.646,1.405 4.871,0.937 8.431,1.936 10.679,2.998 v 19.953 h -8.899 c -4.809,-9.056 -11.429,-13.583 -19.86,-13.583 -3.434,0 -6.588,1.093 -9.461,3.278 -2.872,2.186 -5.152,5.184 -6.838,8.993 -1.624,3.81 -2.436,8.087 -2.436,12.834 0,5.37 0.812,10.304 2.436,14.8 1.686,4.434 4.215,7.994 7.588,10.679 3.372,2.623 7.556,3.935 12.552,3.935 5.683,0 13.77,-3.123 24.262,-9.368 l 3.747,5.995 -17.236,13.396 c -2.748,0.812 -5.402,1.343 -7.963,1.592 -2.498,0.313 -5.183,0.469 -8.056,0.469 -6.994,0 -13.208,-1.593 -18.641,-4.778 -5.433,-3.185 -9.649,-7.556 -12.646,-13.114 -2.998,-5.621 -4.497,-11.991 -4.497,-19.11 0,-7.307 2.249,-14.051 6.745,-20.234 4.496,-6.245 10.086,-11.147 16.768,-14.707 6.682,-3.622 13.052,-5.433 19.11,-5.433 z" />
    <path
       id="path50"
       d="m 597.211,264.629 c 7.182,0 13.52,1.592 19.016,4.777 5.495,3.185 9.742,7.588 12.74,13.209 2.997,5.62 4.496,11.99 4.496,19.109 0,7.307 -2.279,14.052 -6.838,20.234 -4.559,6.183 -10.211,11.085 -16.955,14.707 -6.683,3.56 -13.053,5.34 -19.11,5.34 -7.182,0 -13.521,-1.561 -19.016,-4.684 -5.433,-3.185 -9.68,-7.588 -12.74,-13.208 -2.998,-5.621 -4.496,-11.991 -4.496,-19.11 0,-7.307 2.248,-14.051 6.744,-20.234 4.559,-6.245 10.211,-11.147 16.955,-14.707 6.745,-3.622 13.146,-5.433 19.204,-5.433 z m -5.433,10.773 c -3.498,0 -6.714,1.093 -9.649,3.278 -2.873,2.186 -5.152,5.184 -6.838,8.993 -1.686,3.81 -2.529,8.087 -2.529,12.834 0,5.62 0.843,10.772 2.529,15.456 1.748,4.621 4.34,8.337 7.775,11.147 3.497,2.748 7.806,4.122 12.927,4.122 3.435,0 6.588,-1.093 9.461,-3.279 2.935,-2.185 5.246,-5.183 6.932,-8.992 1.686,-3.81 2.529,-8.088 2.529,-12.834 0,-5.683 -0.843,-10.835 -2.529,-15.456 -1.686,-4.622 -4.278,-8.306 -7.775,-11.054 -3.435,-2.81 -7.712,-4.215 -12.833,-4.215 z" />
    <path
       id="path52"
       d="m 712.147,279.242 v 60.889 h -8.056 l -43.934,-50.116 v 39.063 l 13.302,4.964 -2.998,6.089 h -27.166 v -5.246 l 8.806,-7.4 v -49.179 l -10.398,-5.715 3.091,-6.088 h 16.487 l 42.81,48.711 v -37.751 l -13.302,-4.872 3.091,-6.088 h 27.166 v 5.245 z" />
    <path
       id="path54"
       d="m 766.611,324.675 c 0,-1.874 -0.75,-3.653 -2.248,-5.34 -1.437,-1.686 -3.279,-3.247 -5.527,-4.683 -2.249,-1.437 -5.246,-3.185 -8.993,-5.246 -4.621,-2.561 -8.4,-4.809 -11.335,-6.745 -2.873,-1.936 -5.308,-4.184 -7.307,-6.744 -1.998,-2.561 -2.997,-5.371 -2.997,-8.431 0,-3.123 1.436,-6.464 4.309,-10.023 2.873,-3.623 6.37,-6.651 10.492,-9.087 4.184,-2.498 8.024,-3.747 11.522,-3.747 4.184,0 9.086,0.468 14.707,1.405 5.62,0.937 9.742,1.936 12.365,2.998 v 20.515 h -8.806 c -2.623,-5.059 -5.527,-8.993 -8.712,-11.803 -3.122,-2.811 -6.432,-4.216 -9.929,-4.216 -2.498,0 -4.465,0.812 -5.902,2.436 -1.436,1.561 -2.154,3.559 -2.154,5.995 0,1.998 0.749,3.903 2.248,5.714 1.561,1.749 3.466,3.372 5.714,4.871 2.311,1.437 5.402,3.216 9.274,5.34 4.559,2.498 8.244,4.683 11.054,6.557 2.81,1.873 5.183,4.059 7.119,6.557 1.936,2.498 2.904,5.246 2.904,8.244 0,3.122 -1.53,6.495 -4.59,10.117 -3.06,3.559 -6.807,6.588 -11.241,9.086 -4.372,2.436 -8.368,3.653 -11.991,3.653 -4.371,0 -9.617,-0.468 -15.737,-1.405 -6.058,-0.936 -10.429,-1.936 -13.114,-2.997 v -20.515 h 8.805 c 2.748,5.058 5.933,8.993 9.555,11.803 3.622,2.81 7.275,4.215 10.96,4.215 2.873,0 5.183,-0.812 6.932,-2.435 1.748,-1.686 2.623,-3.716 2.623,-6.089 z" />
    <path
       id="path56"
       d="m 863.583,290.577 -5.152,2.061 -13.208,-19.016 h -8.712 v 57.704 l 10.491,2.716 -3.091,6.089 H 810.75 v -5.246 l 8.806,-6.932 v -54.331 h -8.338 l -13.208,19.016 -5.152,-2.061 v -25.761 l 6.745,1.687 h 57.235 l 6.745,-1.687 z" />
    <path
       id="path58"
       d="m 944.774,340.131 h -20.328 l -18.079,-32.411 -4.122,-2.53 2.342,-4.59 h 4.309 c 3.372,0 6.027,-1.03 7.963,-3.091 1.935,-2.061 2.903,-4.965 2.903,-8.712 0,-4.371 -1.186,-7.931 -3.559,-10.679 -2.311,-2.81 -5.714,-4.215 -10.211,-4.215 -2.81,0 -5.433,0.874 -7.869,2.623 v 54.612 l 10.398,2.998 -2.997,6.089 h -33.161 v -5.246 l 8.805,-7.4 v -51.99 l -10.398,-2.904 3.092,-6.089 h 15.55 c 5.433,0 10.772,-0.187 16.018,-0.562 3.747,-0.25 6.557,-0.375 8.431,-0.375 4.809,0 9.055,0.875 12.74,2.623 3.747,1.686 6.619,3.997 8.618,6.932 2.061,2.935 3.091,6.214 3.091,9.836 0,4.372 -1.936,8.431 -5.808,12.178 -3.872,3.747 -8.587,6.557 -14.145,8.431 l 7.494,2.154 12.178,21.733 9.742,4.496 z" />
    <path
       id="path60"
       d="m 1020.71,278.68 v 32.412 c 0,6.557 -1.65,12.178 -4.96,16.861 -3.25,4.684 -7.31,8.213 -12.18,10.586 -4.807,2.31 -9.491,3.466 -14.05,3.466 -5.995,0 -11.397,-1.218 -16.205,-3.654 -4.747,-2.498 -8.462,-5.901 -11.148,-10.21 -2.623,-4.372 -3.934,-9.274 -3.934,-14.707 v -38.126 l -10.304,-2.717 2.997,-6.088 h 33.161 v 5.245 l -8.899,6.932 v 31.382 c 0,6.682 1.718,11.896 5.152,15.643 3.435,3.685 8.618,5.527 15.55,5.527 2.623,0 5.21,-0.781 7.78,-2.342 2.56,-1.623 4.68,-3.965 6.37,-7.025 1.68,-3.06 2.52,-6.683 2.52,-10.867 v -34.191 l -10.86,-4.216 3,-6.088 h 24.91 v 5.245 z" />
    <path
       id="path62"
       d="m 1079.3,264.629 c 3.62,0 7.84,0.468 12.65,1.405 4.87,0.937 8.43,1.936 10.68,2.998 v 19.953 h -8.9 c -4.81,-9.056 -11.43,-13.583 -19.86,-13.583 -3.44,0 -6.59,1.093 -9.46,3.278 -2.87,2.186 -5.15,5.184 -6.84,8.993 -1.62,3.81 -2.44,8.087 -2.44,12.834 0,5.37 0.82,10.304 2.44,14.8 1.69,4.434 4.22,7.994 7.59,10.679 3.37,2.623 7.55,3.935 12.55,3.935 5.68,0 13.77,-3.123 24.26,-9.368 l 3.75,5.995 -17.24,13.396 c -2.75,0.812 -5.4,1.343 -7.96,1.592 -2.5,0.313 -5.18,0.469 -8.06,0.469 -6.99,0 -13.2,-1.593 -18.64,-4.778 -5.43,-3.185 -9.65,-7.556 -12.64,-13.114 -3,-5.621 -4.5,-11.991 -4.5,-19.11 0,-7.307 2.25,-14.051 6.74,-20.234 4.5,-6.245 10.09,-11.147 16.77,-14.707 6.68,-3.622 13.05,-5.433 19.11,-5.433 z" />
    <path
       id="path64"
       d="m 1184.59,290.577 -5.16,2.061 -13.21,-19.016 h -8.71 v 57.704 l 10.49,2.716 -3.09,6.089 h -33.16 v -5.246 l 8.81,-6.932 v -54.331 h -8.34 l -13.21,19.016 -5.15,-2.061 v -25.761 l 6.75,1.687 h 57.23 l 6.75,-1.687 z" />
    <path
       id="path66"
       d="m 1226.43,340.038 h -33.16 v -5.246 l 8.81,-7.401 v -51.896 l -10.4,-2.997 3.09,-6.089 h 33.16 v 5.246 l -8.9,7.494 v 51.896 l 10.4,2.904 z" />
    <path
       id="path68"
       d="m 1280.66,264.629 c 7.18,0 13.52,1.592 19.01,4.777 5.5,3.185 9.74,7.588 12.74,13.209 3,5.62 4.5,11.99 4.5,19.109 0,7.307 -2.28,14.052 -6.84,20.234 -4.56,6.183 -10.21,11.085 -16.96,14.707 -6.68,3.56 -13.05,5.34 -19.11,5.34 -7.18,0 -13.52,-1.561 -19.01,-4.684 -5.43,-3.185 -9.68,-7.588 -12.74,-13.208 -3,-5.621 -4.5,-11.991 -4.5,-19.11 0,-7.307 2.25,-14.051 6.75,-20.234 4.56,-6.245 10.21,-11.147 16.95,-14.707 6.75,-3.622 13.15,-5.433 19.21,-5.433 z m -5.44,10.773 c -3.49,0 -6.71,1.093 -9.65,3.278 -2.87,2.186 -5.15,5.184 -6.83,8.993 -1.69,3.81 -2.53,8.087 -2.53,12.834 0,5.62 0.84,10.772 2.53,15.456 1.74,4.621 4.34,8.337 7.77,11.147 3.5,2.748 7.81,4.122 12.93,4.122 3.43,0 6.59,-1.093 9.46,-3.279 2.93,-2.185 5.25,-5.183 6.93,-8.992 1.69,-3.81 2.53,-8.088 2.53,-12.834 0,-5.683 -0.84,-10.835 -2.53,-15.456 -1.68,-4.622 -4.28,-8.306 -7.77,-11.054 -3.44,-2.81 -7.72,-4.215 -12.84,-4.215 z" />
    <path
       id="path70"
       d="m 1395.59,279.242 v 60.889 h -8.05 l -43.94,-50.116 v 39.063 l 13.3,4.964 -2.99,6.089 h -27.17 v -5.246 l 8.81,-7.4 v -49.179 l -10.4,-5.715 3.09,-6.088 h 16.49 l 42.81,48.711 v -37.751 l -13.31,-4.872 3.1,-6.088 h 27.16 v 5.245 z" />
    <path
       id="path72"
       d="m 86.6192,133.281 c 3.6221,0 7.8375,0.468 12.6461,1.405 4.8707,0.937 8.4307,1.936 10.6787,2.998 v 19.952 h -8.899 c -4.8085,-9.055 -11.4282,-13.582 -19.859,-13.582 -3.4347,0 -6.5885,1.092 -9.4612,3.278 -2.8727,2.186 -5.1521,5.184 -6.8383,8.993 -1.6237,3.809 -2.4355,8.087 -2.4355,12.834 0,5.37 0.8118,10.304 2.4355,14.8 1.6862,4.434 4.2154,7.994 7.5877,10.679 3.3723,2.623 7.5565,3.935 12.5525,3.935 5.683,0 13.7703,-3.123 24.2623,-9.368 l 3.747,5.995 -17.2366,13.396 c -2.7479,0.812 -5.402,1.342 -7.9624,1.592 -2.498,0.313 -5.1834,0.469 -8.0561,0.469 -6.9944,0 -13.2082,-1.593 -18.6414,-4.778 -5.4332,-3.185 -9.6485,-7.556 -12.6461,-13.114 -2.9977,-5.621 -4.4965,-11.991 -4.4965,-19.11 0,-7.307 2.2482,-14.051 6.7447,-20.234 4.4964,-6.245 10.0857,-11.147 16.7678,-14.707 6.6822,-3.622 13.0521,-5.433 19.1098,-5.433 z m 78.6788,0 c 7.182,0 13.521,1.592 19.016,4.777 5.496,3.185 9.743,7.588 12.74,13.209 2.998,5.62 4.497,11.99 4.497,19.109 0,7.307 -2.28,14.052 -6.839,20.234 -4.558,6.183 -10.21,11.085 -16.955,14.707 -6.682,3.56 -13.052,5.34 -19.11,5.34 -7.181,0 -13.52,-1.562 -19.016,-4.684 -5.433,-3.185 -9.679,-7.588 -12.74,-13.208 -2.997,-5.621 -4.496,-11.991 -4.496,-19.11 0,-7.307 2.248,-14.051 6.745,-20.234 4.559,-6.245 10.21,-11.147 16.955,-14.707 6.745,-3.622 13.146,-5.433 19.203,-5.433 z m -5.433,10.773 c -3.497,0 -6.713,1.092 -9.648,3.278 -2.873,2.186 -5.153,5.184 -6.839,8.993 -1.686,3.809 -2.529,8.087 -2.529,12.834 0,5.62 0.843,10.772 2.529,15.456 1.749,4.621 4.341,8.337 7.775,11.147 3.498,2.748 7.807,4.122 12.928,4.122 3.434,0 6.588,-1.093 9.461,-3.279 2.935,-2.185 5.246,-5.183 6.932,-8.992 1.686,-3.81 2.529,-8.088 2.529,-12.834 0,-5.683 -0.843,-10.835 -2.529,-15.456 -1.686,-4.622 -4.278,-8.306 -7.775,-11.054 -3.435,-2.81 -7.713,-4.215 -12.834,-4.215 z m 120.369,3.84 v 60.889 h -8.056 l -43.934,-50.116 v 39.062 l 13.302,4.965 -2.997,6.089 h -27.166 v -5.246 l 8.805,-7.4 v -49.179 l -10.398,-5.715 3.092,-6.089 h 16.487 l 42.809,48.712 v -37.752 l -13.302,-4.871 3.092,-6.089 h 27.165 v 5.246 z m 54.464,45.433 c 0,-1.874 -0.749,-3.654 -2.248,-5.34 -1.436,-1.686 -3.279,-3.247 -5.527,-4.684 -2.248,-1.436 -5.246,-3.184 -8.993,-5.245 -4.621,-2.561 -8.399,-4.809 -11.334,-6.745 -2.873,-1.936 -5.309,-4.184 -7.307,-6.745 -1.998,-2.56 -2.998,-5.37 -2.998,-8.43 0,-3.123 1.437,-6.464 4.31,-10.024 2.872,-3.622 6.369,-6.651 10.491,-9.086 4.184,-2.498 8.025,-3.747 11.522,-3.747 4.184,0 9.087,0.468 14.707,1.405 5.621,0.937 9.742,1.936 12.365,2.998 v 20.515 h -8.805 c -2.623,-5.059 -5.527,-8.993 -8.712,-11.804 -3.122,-2.81 -6.432,-4.215 -9.93,-4.215 -2.498,0 -4.465,0.812 -5.901,2.436 -1.436,1.561 -2.155,3.559 -2.155,5.995 0,1.998 0.75,3.903 2.249,5.714 1.561,1.749 3.466,3.372 5.714,4.871 2.31,1.436 5.402,3.216 9.274,5.34 4.559,2.498 8.243,4.683 11.053,6.557 2.811,1.873 5.184,4.059 7.12,6.557 1.936,2.498 2.904,5.246 2.904,8.244 0,3.122 -1.53,6.494 -4.59,10.117 -3.061,3.559 -6.808,6.588 -11.242,9.086 -4.371,2.436 -8.368,3.653 -11.99,3.653 -4.371,0 -9.617,-0.468 -15.737,-1.405 -6.058,-0.937 -10.43,-1.936 -13.115,-2.997 v -20.515 h 8.806 c 2.747,5.058 5.932,8.993 9.554,11.803 3.623,2.81 7.276,4.215 10.96,4.215 2.873,0 5.184,-0.812 6.932,-2.435 1.749,-1.687 2.623,-3.716 2.623,-6.089 z m 96.972,-34.098 -5.152,2.061 -13.208,-19.016 h -8.712 v 57.704 l 10.492,2.716 -3.091,6.089 h -33.161 v -5.246 l 8.805,-6.932 v -54.331 h -8.337 l -13.208,19.016 -5.152,-2.061 v -25.761 l 6.744,1.686 h 57.236 l 6.744,-1.686 z m 81.191,49.554 h -20.327 l -18.08,-32.411 -4.121,-2.53 2.342,-4.59 h 4.309 c 3.372,0 6.026,-1.03 7.962,-3.091 1.936,-2.061 2.904,-4.965 2.904,-8.712 0,-4.371 -1.187,-7.931 -3.56,-10.679 -2.31,-2.81 -5.714,-4.215 -10.21,-4.215 -2.81,0 -5.433,0.874 -7.869,2.623 v 54.612 l 10.398,2.998 -2.998,6.089 H 440.45 v -5.246 l 8.806,-7.4 v -51.99 l -10.398,-2.904 3.091,-6.089 h 15.55 c 5.433,0 10.773,-0.187 16.019,-0.562 3.747,-0.25 6.557,-0.375 8.43,-0.375 4.809,0 9.056,0.875 12.74,2.623 3.747,1.686 6.62,3.997 8.618,6.932 2.061,2.935 3.092,6.214 3.092,9.836 0,4.372 -1.936,8.431 -5.808,12.178 -3.872,3.747 -8.587,6.557 -14.145,8.431 l 7.494,2.154 12.178,21.733 9.742,4.496 z m 75.941,-61.451 v 32.412 c 0,6.557 -1.655,12.178 -4.965,16.861 -3.247,4.684 -7.307,8.213 -12.178,10.586 -4.808,2.31 -9.492,3.466 -14.051,3.466 -5.995,0 -11.397,-1.218 -16.206,-3.654 -4.746,-2.498 -8.462,-5.901 -11.147,-10.21 -2.623,-4.372 -3.934,-9.274 -3.934,-14.707 V 143.96 l -10.305,-2.717 2.998,-6.089 h 33.161 v 5.246 l -8.899,6.932 v 31.381 c 0,6.683 1.717,11.897 5.152,15.644 3.435,3.685 8.618,5.527 15.55,5.527 2.623,0 5.215,-0.781 7.775,-2.342 2.56,-1.624 4.684,-3.965 6.37,-7.026 1.686,-3.06 2.529,-6.682 2.529,-10.866 v -34.191 l -10.866,-4.216 2.997,-6.089 h 24.918 v 5.246 z m 58.588,-14.051 c 3.622,0 7.837,0.468 12.646,1.405 4.871,0.937 8.431,1.936 10.679,2.998 v 19.952 h -8.899 c -4.809,-9.055 -11.428,-13.582 -19.859,-13.582 -3.435,0 -6.589,1.092 -9.461,3.278 -2.873,2.186 -5.153,5.184 -6.839,8.993 -1.623,3.809 -2.435,8.087 -2.435,12.834 0,5.37 0.812,10.304 2.435,14.8 1.686,4.434 4.216,7.994 7.588,10.679 3.372,2.623 7.556,3.935 12.552,3.935 5.683,0 13.771,-3.123 24.262,-9.368 l 3.747,5.995 -17.236,13.396 c -2.748,0.812 -5.402,1.342 -7.962,1.592 -2.498,0.313 -5.184,0.469 -8.056,0.469 -6.995,0 -13.209,-1.593 -18.642,-4.778 -5.433,-3.185 -9.648,-7.556 -12.646,-13.114 -2.997,-5.621 -4.496,-11.991 -4.496,-19.11 0,-7.307 2.248,-14.051 6.744,-20.234 4.497,-6.245 10.086,-11.147 16.768,-14.707 6.682,-3.622 13.052,-5.433 19.11,-5.433 z m 105.283,25.948 -5.152,2.061 -13.208,-19.016 h -8.712 v 57.704 l 10.491,2.716 -3.091,6.089 H 699.84 v -5.246 l 8.806,-6.932 v -54.331 h -8.338 l -13.208,19.016 -5.152,-2.061 v -25.761 l 6.745,1.686 h 57.235 l 6.745,-1.686 z m 41.847,49.461 h -33.161 v -5.246 l 8.806,-7.401 v -51.896 l -10.398,-2.997 3.091,-6.089 h 33.161 v 5.246 l -8.899,7.494 v 51.896 l 10.398,2.904 z m 54.223,-75.409 c 7.182,0 13.521,1.592 19.017,4.777 5.495,3.185 9.742,7.588 12.739,13.209 2.998,5.62 4.497,11.99 4.497,19.109 0,7.307 -2.28,14.052 -6.839,20.234 -4.558,6.183 -10.21,11.085 -16.955,14.707 -6.682,3.56 -13.052,5.34 -19.109,5.34 -7.182,0 -13.521,-1.562 -19.017,-4.684 -5.433,-3.185 -9.679,-7.588 -12.739,-13.208 -2.998,-5.621 -4.497,-11.991 -4.497,-19.11 0,-7.307 2.248,-14.051 6.745,-20.234 4.559,-6.245 10.21,-11.147 16.955,-14.707 6.745,-3.622 13.146,-5.433 19.203,-5.433 z m -5.433,10.773 c -3.497,0 -6.713,1.092 -9.648,3.278 -2.873,2.186 -5.152,5.184 -6.839,8.993 -1.686,3.809 -2.529,8.087 -2.529,12.834 0,5.62 0.843,10.772 2.529,15.456 1.749,4.621 4.341,8.337 7.776,11.147 3.497,2.748 7.806,4.122 12.927,4.122 3.434,0 6.588,-1.093 9.461,-3.279 2.935,-2.185 5.246,-5.183 6.932,-8.992 1.686,-3.81 2.529,-8.088 2.529,-12.834 0,-5.683 -0.843,-10.835 -2.529,-15.456 -1.686,-4.622 -4.278,-8.306 -7.775,-11.054 -3.435,-2.81 -7.713,-4.215 -12.834,-4.215 z m 120.369,3.84 v 60.889 h -8.056 L 911.69,158.667 v 39.062 l 13.301,4.965 -2.997,6.089 h -27.166 v -5.246 l 8.805,-7.4 v -49.179 l -10.398,-5.715 3.092,-6.089 h 16.487 l 42.809,48.712 v -37.752 l -13.302,-4.871 3.092,-6.089 h 27.165 v 5.246 z m 120.341,60.889 h -34.84 v -5.246 l 10.21,-6.089 -5.72,-13.957 h -28.94 l -5.15,12.552 14.33,6.651 -3,6.089 h -30.26 v -5.246 l 10.12,-7.587 23.98,-57.798 16.21,-4.777 26.6,64.542 9.56,4.777 z m -44.68,-60.608 -11.61,28.103 h 23.04 z m 111.48,60.608 h -59.77 v -5.246 l 8.81,-6.932 V 143.96 l -10.4,-2.717 3.09,-6.089 h 33.16 v 5.246 l -8.9,6.932 v 54.332 h 21.08 l 14.52,-20.983 5.15,2.154 v 27.634 z m 55.63,-74.565 c 6.99,0 13.18,1.561 18.55,4.683 5.43,3.06 9.61,7.338 12.55,12.834 3,5.496 4.49,11.709 4.49,18.641 0,7.12 -2.24,13.708 -6.74,19.766 -4.43,5.995 -9.96,10.772 -16.58,14.332 -6.62,3.497 -12.93,5.246 -18.92,5.246 -2.88,0 -5.72,-0.156 -8.53,-0.468 -4.68,-0.313 -8.27,-0.469 -10.77,-0.469 h -14.8 v -5.246 l 8.8,-6.932 v -52.177 l -10.39,-3.185 3.09,-6.089 h 13.21 c 5.74,0 11.36,-0.187 16.86,-0.562 4.24,-0.249 7.3,-0.374 9.18,-0.374 z m -3.94,66.79 c 3.94,0 7.5,-1.124 10.68,-3.372 3.25,-2.248 5.78,-5.371 7.59,-9.368 1.87,-3.997 2.81,-8.493 2.81,-13.489 0,-5.995 -0.9,-11.397 -2.72,-16.206 -1.74,-4.871 -4.46,-8.743 -8.15,-11.615 -3.62,-2.936 -8.11,-4.403 -13.48,-4.403 -2.82,0 -5.41,0.749 -7.78,2.248 v 54.425 c 3.19,1.187 6.84,1.78 10.96,1.78 z m 93.2,-67.727 c 7.19,0 13.52,1.592 19.02,4.777 5.5,3.185 9.74,7.588 12.74,13.209 3,5.62 4.5,11.99 4.5,19.109 0,7.307 -2.28,14.052 -6.84,20.234 -4.56,6.183 -10.21,11.085 -16.96,14.707 -6.68,3.56 -13.05,5.34 -19.11,5.34 -7.18,0 -13.52,-1.562 -19.01,-4.684 -5.44,-3.185 -9.68,-7.588 -12.74,-13.208 -3,-5.621 -4.5,-11.991 -4.5,-19.11 0,-7.307 2.25,-14.051 6.74,-20.234 4.56,-6.245 10.22,-11.147 16.96,-14.707 6.74,-3.622 13.15,-5.433 19.2,-5.433 z m -5.43,10.773 c -3.5,0 -6.71,1.092 -9.65,3.278 -2.87,2.186 -5.15,5.184 -6.84,8.993 -1.68,3.809 -2.53,8.087 -2.53,12.834 0,5.62 0.85,10.772 2.53,15.456 1.75,4.621 4.34,8.337 7.78,11.147 3.5,2.748 7.8,4.122 12.93,4.122 3.43,0 6.58,-1.093 9.46,-3.279 2.93,-2.185 5.24,-5.183 6.93,-8.992 1.68,-3.81 2.53,-8.088 2.53,-12.834 0,-5.683 -0.85,-10.835 -2.53,-15.456 -1.69,-4.622 -4.28,-8.306 -7.78,-11.054 -3.43,-2.81 -7.71,-4.215 -12.83,-4.215 z M 1438,209.158 h -33.16 v -5.246 l 8.81,-6.932 v -44.964 l -23.23,57.048 h -8.15 l -23.61,-57.516 v 47.212 l 10.4,4.122 -3,6.089 h -24.26 v -5.246 l 8.8,-6.932 V 145.74 l -10.39,-4.403 3.09,-6.089 h 26.32 l 21.36,52.084 21.17,-52.084 h 27.35 v 5.246 l -8.9,6.932 v 52.552 l 10.4,3.091 z" />
    <path
       id="path74"
       d="m 86.6192,395.977 c 3.6221,0 7.8375,0.468 12.6461,1.405 4.8707,0.937 8.4307,1.936 10.6787,2.998 v 19.953 h -8.899 C 96.2365,411.277 89.6168,406.75 81.186,406.75 c -3.4347,0 -6.5885,1.093 -9.4612,3.278 -2.8727,2.186 -5.1521,5.184 -6.8383,8.993 -1.6237,3.81 -2.4355,8.088 -2.4355,12.834 0,5.37 0.8118,10.304 2.4355,14.8 1.6862,4.434 4.2154,7.994 7.5877,10.679 3.3723,2.623 7.5565,3.935 12.5525,3.935 5.683,0 13.7703,-3.123 24.2623,-9.368 l 3.747,5.995 -17.2366,13.396 c -2.7479,0.812 -5.402,1.343 -7.9624,1.593 -2.498,0.312 -5.1834,0.468 -8.0561,0.468 -6.9944,0 -13.2082,-1.593 -18.6414,-4.778 -5.4332,-3.185 -9.6485,-7.556 -12.6461,-13.114 -2.9977,-5.621 -4.4965,-11.991 -4.4965,-19.11 0,-7.307 2.2482,-14.051 6.7447,-20.234 4.4964,-6.245 10.0857,-11.147 16.7678,-14.707 6.6822,-3.622 13.0521,-5.433 19.1098,-5.433 z m 78.6788,0 c 7.182,0 13.521,1.593 19.016,4.778 5.496,3.185 9.743,7.587 12.74,13.208 2.998,5.62 4.497,11.99 4.497,19.11 0,7.306 -2.28,14.051 -6.839,20.233 -4.558,6.183 -10.21,11.085 -16.955,14.707 -6.682,3.56 -13.052,5.34 -19.11,5.34 -7.181,0 -13.52,-1.561 -19.016,-4.684 -5.433,-3.185 -9.679,-7.588 -12.74,-13.208 -2.997,-5.621 -4.496,-11.991 -4.496,-19.11 0,-7.307 2.248,-14.051 6.745,-20.234 4.559,-6.245 10.21,-11.147 16.955,-14.707 6.745,-3.622 13.146,-5.433 19.203,-5.433 z m -5.433,10.773 c -3.497,0 -6.713,1.093 -9.648,3.278 -2.873,2.186 -5.153,5.184 -6.839,8.993 -1.686,3.81 -2.529,8.088 -2.529,12.834 0,5.62 0.843,10.772 2.529,15.456 1.749,4.621 4.341,8.337 7.775,11.147 3.498,2.748 7.807,4.122 12.928,4.122 3.434,0 6.588,-1.093 9.461,-3.278 2.935,-2.186 5.246,-5.184 6.932,-8.993 1.686,-3.81 2.529,-8.088 2.529,-12.834 0,-5.683 -0.843,-10.835 -2.529,-15.456 -1.686,-4.621 -4.278,-8.306 -7.775,-11.054 -3.435,-2.81 -7.713,-4.215 -12.834,-4.215 z m 120.369,3.84 v 60.889 h -8.056 l -43.934,-50.116 v 39.063 l 13.302,4.964 -2.997,6.089 h -27.166 v -5.245 l 8.805,-7.401 v -49.179 l -10.398,-5.714 3.092,-6.089 h 16.487 l 42.809,48.711 v -37.751 l -13.302,-4.871 3.092,-6.089 h 27.165 v 5.245 z m 54.464,45.433 c 0,-1.874 -0.749,-3.653 -2.248,-5.34 -1.436,-1.686 -3.279,-3.247 -5.527,-4.683 -2.248,-1.437 -5.246,-3.185 -8.993,-5.246 -4.621,-2.561 -8.399,-4.809 -11.334,-6.745 -2.873,-1.936 -5.309,-4.184 -7.307,-6.744 -1.998,-2.561 -2.998,-5.371 -2.998,-8.431 0,-3.123 1.437,-6.464 4.31,-10.023 2.872,-3.622 6.369,-6.651 10.491,-9.087 4.184,-2.498 8.025,-3.747 11.522,-3.747 4.184,0 9.087,0.468 14.707,1.405 5.621,0.937 9.742,1.936 12.365,2.998 v 20.515 h -8.805 c -2.623,-5.059 -5.527,-8.993 -8.712,-11.803 -3.122,-2.811 -6.432,-4.216 -9.93,-4.216 -2.498,0 -4.465,0.812 -5.901,2.436 -1.436,1.561 -2.155,3.559 -2.155,5.995 0,1.998 0.75,3.903 2.249,5.714 1.561,1.749 3.466,3.373 5.714,4.871 2.31,1.437 5.402,3.216 9.274,5.34 4.559,2.498 8.243,4.684 11.053,6.557 2.811,1.874 5.184,4.059 7.12,6.557 1.936,2.498 2.904,5.246 2.904,8.244 0,3.122 -1.53,6.495 -4.59,10.117 -3.061,3.559 -6.808,6.588 -11.242,9.086 -4.371,2.436 -8.368,3.654 -11.99,3.654 -4.371,0 -9.617,-0.469 -15.737,-1.406 -6.058,-0.936 -10.43,-1.936 -13.115,-2.997 v -20.515 h 8.806 c 2.747,5.058 5.932,8.993 9.554,11.803 3.623,2.81 7.276,4.215 10.96,4.215 2.873,0 5.184,-0.811 6.932,-2.435 1.749,-1.686 2.623,-3.716 2.623,-6.089 z m 96.972,-34.098 -5.152,2.061 -13.208,-19.016 h -8.712 v 57.704 l 10.492,2.716 -3.091,6.089 h -33.161 v -5.245 l 8.805,-6.932 V 404.97 h -8.337 l -13.208,19.016 -5.152,-2.061 v -25.761 l 6.744,1.687 h 57.236 l 6.744,-1.687 z m 81.191,49.554 h -20.327 l -18.08,-32.411 -4.121,-2.529 2.342,-4.591 h 4.309 c 3.372,0 6.026,-1.03 7.962,-3.091 1.936,-2.061 2.904,-4.965 2.904,-8.712 0,-4.371 -1.187,-7.931 -3.56,-10.679 -2.31,-2.81 -5.714,-4.215 -10.21,-4.215 -2.81,0 -5.433,0.874 -7.869,2.623 v 54.613 l 10.398,2.997 -2.998,6.089 H 440.45 v -5.246 l 8.806,-7.4 v -51.99 l -10.398,-2.904 3.091,-6.089 h 15.55 c 5.433,0 10.773,-0.187 16.019,-0.562 3.747,-0.25 6.557,-0.374 8.43,-0.374 4.809,0 9.056,0.874 12.74,2.622 3.747,1.687 6.62,3.997 8.618,6.932 2.061,2.936 3.092,6.214 3.092,9.836 0,4.372 -1.936,8.431 -5.808,12.178 -3.872,3.747 -8.587,6.557 -14.145,8.431 l 7.494,2.154 12.178,21.733 9.742,4.496 z m 75.941,-61.451 v 32.412 c 0,6.557 -1.655,12.178 -4.965,16.862 -3.247,4.683 -7.307,8.212 -12.178,10.585 -4.808,2.311 -9.492,3.466 -14.051,3.466 -5.995,0 -11.397,-1.218 -16.206,-3.653 -4.746,-2.498 -8.462,-5.902 -11.147,-10.211 -2.623,-4.372 -3.934,-9.274 -3.934,-14.707 v -38.126 l -10.305,-2.716 2.998,-6.089 h 33.161 v 5.245 l -8.899,6.932 v 31.382 c 0,6.682 1.717,11.896 5.152,15.643 3.435,3.685 8.618,5.527 15.55,5.527 2.623,0 5.215,-0.78 7.775,-2.342 2.56,-1.623 4.684,-3.965 6.37,-7.025 1.686,-3.06 2.529,-6.682 2.529,-10.867 v -34.191 l -10.866,-4.215 2.997,-6.089 h 24.918 v 5.245 z m 58.588,-14.051 c 3.622,0 7.837,0.468 12.646,1.405 4.871,0.937 8.431,1.936 10.679,2.998 v 19.953 h -8.899 c -4.809,-9.056 -11.428,-13.583 -19.859,-13.583 -3.435,0 -6.589,1.093 -9.461,3.278 -2.873,2.186 -5.153,5.184 -6.839,8.993 -1.623,3.81 -2.435,8.088 -2.435,12.834 0,5.37 0.812,10.304 2.435,14.8 1.686,4.434 4.216,7.994 7.588,10.679 3.372,2.623 7.556,3.935 12.552,3.935 5.683,0 13.771,-3.123 24.262,-9.368 l 3.747,5.995 -17.236,13.396 c -2.748,0.812 -5.402,1.343 -7.962,1.593 -2.498,0.312 -5.184,0.468 -8.056,0.468 -6.995,0 -13.209,-1.593 -18.642,-4.778 -5.433,-3.185 -9.648,-7.556 -12.646,-13.114 -2.997,-5.621 -4.496,-11.991 -4.496,-19.11 0,-7.307 2.248,-14.051 6.744,-20.234 4.497,-6.245 10.086,-11.147 16.768,-14.707 6.682,-3.622 13.052,-5.433 19.11,-5.433 z m 105.283,25.948 -5.152,2.061 -13.208,-19.016 h -8.712 v 57.704 l 10.491,2.716 -3.091,6.089 H 699.84 v -5.245 l 8.806,-6.932 V 404.97 h -8.338 l -13.208,19.016 -5.152,-2.061 v -25.761 l 6.745,1.687 h 57.235 l 6.745,-1.687 z m 41.847,49.461 h -33.161 v -5.246 l 8.806,-7.4 v -51.897 l -10.398,-2.997 3.091,-6.089 h 33.161 v 5.246 l -8.899,7.494 v 51.896 l 10.398,2.904 z m 54.223,-75.409 c 7.182,0 13.521,1.593 19.017,4.778 5.495,3.185 9.742,7.587 12.739,13.208 2.998,5.62 4.497,11.99 4.497,19.11 0,7.306 -2.28,14.051 -6.839,20.233 -4.558,6.183 -10.21,11.085 -16.955,14.707 -6.682,3.56 -13.052,5.34 -19.109,5.34 -7.182,0 -13.521,-1.561 -19.017,-4.684 -5.433,-3.185 -9.679,-7.588 -12.739,-13.208 -2.998,-5.621 -4.497,-11.991 -4.497,-19.11 0,-7.307 2.248,-14.051 6.745,-20.234 4.559,-6.245 10.21,-11.147 16.955,-14.707 6.745,-3.622 13.146,-5.433 19.203,-5.433 z m -5.433,10.773 c -3.497,0 -6.713,1.093 -9.648,3.278 -2.873,2.186 -5.152,5.184 -6.839,8.993 -1.686,3.81 -2.529,8.088 -2.529,12.834 0,5.62 0.843,10.772 2.529,15.456 1.749,4.621 4.341,8.337 7.776,11.147 3.497,2.748 7.806,4.122 12.927,4.122 3.434,0 6.588,-1.093 9.461,-3.278 2.935,-2.186 5.246,-5.184 6.932,-8.993 1.686,-3.81 2.529,-8.088 2.529,-12.834 0,-5.683 -0.843,-10.835 -2.529,-15.456 -1.686,-4.621 -4.278,-8.306 -7.775,-11.054 -3.435,-2.81 -7.713,-4.215 -12.834,-4.215 z m 120.369,3.84 v 60.889 h -8.056 L 911.69,421.363 v 39.063 l 13.301,4.964 -2.997,6.089 h -27.166 v -5.245 l 8.805,-7.401 v -49.179 l -10.398,-5.714 3.092,-6.089 h 16.487 l 42.809,48.711 v -37.751 l -13.302,-4.871 3.092,-6.089 h 27.165 v 5.245 z m 120.341,60.889 h -34.84 v -5.245 l 10.21,-6.089 -5.72,-13.958 h -28.94 l -5.15,12.553 14.33,6.65 -3,6.089 h -30.26 v -5.245 l 10.12,-7.588 23.98,-57.798 16.21,-4.777 26.6,64.542 9.56,4.777 z m -44.68,-60.608 -11.61,28.103 h 23.04 z m 111.48,60.608 h -59.77 v -5.245 l 8.81,-6.932 v -52.646 l -10.4,-2.716 3.09,-6.089 h 33.16 v 5.245 l -8.9,6.932 v 54.332 h 21.08 l 14.52,-20.983 5.15,2.154 v 27.635 z m 55.63,-74.565 c 6.99,0 13.18,1.561 18.55,4.684 5.43,3.06 9.61,7.338 12.55,12.833 3,5.496 4.49,11.71 4.49,18.642 0,7.119 -2.24,13.707 -6.74,19.765 -4.43,5.995 -9.96,10.773 -16.58,14.332 -6.62,3.498 -12.93,5.246 -18.92,5.246 -2.88,0 -5.72,-0.156 -8.53,-0.468 -4.68,-0.313 -8.27,-0.469 -10.77,-0.469 h -14.8 v -5.245 l 8.8,-6.932 v -52.178 l -10.39,-3.184 3.09,-6.089 h 13.21 c 5.74,0 11.36,-0.188 16.86,-0.562 4.24,-0.25 7.3,-0.375 9.18,-0.375 z m -3.94,66.79 c 3.94,0 7.5,-1.124 10.68,-3.372 3.25,-2.248 5.78,-5.371 7.59,-9.368 1.87,-3.996 2.81,-8.493 2.81,-13.489 0,-5.995 -0.9,-11.397 -2.72,-16.206 -1.74,-4.871 -4.46,-8.743 -8.15,-11.615 -3.62,-2.935 -8.11,-4.403 -13.48,-4.403 -2.82,0 -5.41,0.749 -7.78,2.248 v 54.425 c 3.19,1.187 6.84,1.78 10.96,1.78 z m 93.2,-67.727 c 7.19,0 13.52,1.593 19.02,4.778 5.5,3.185 9.74,7.587 12.74,13.208 3,5.62 4.5,11.99 4.5,19.11 0,7.306 -2.28,14.051 -6.84,20.233 -4.56,6.183 -10.21,11.085 -16.96,14.707 -6.68,3.56 -13.05,5.34 -19.11,5.34 -7.18,0 -13.52,-1.561 -19.01,-4.684 -5.44,-3.185 -9.68,-7.588 -12.74,-13.208 -3,-5.621 -4.5,-11.991 -4.5,-19.11 0,-7.307 2.25,-14.051 6.74,-20.234 4.56,-6.245 10.22,-11.147 16.96,-14.707 6.74,-3.622 13.15,-5.433 19.2,-5.433 z m -5.43,10.773 c -3.5,0 -6.71,1.093 -9.65,3.278 -2.87,2.186 -5.15,5.184 -6.84,8.993 -1.68,3.81 -2.53,8.088 -2.53,12.834 0,5.62 0.85,10.772 2.53,15.456 1.75,4.621 4.34,8.337 7.78,11.147 3.5,2.748 7.8,4.122 12.93,4.122 3.43,0 6.58,-1.093 9.46,-3.278 2.93,-2.186 5.24,-5.184 6.93,-8.993 1.68,-3.81 2.53,-8.088 2.53,-12.834 0,-5.683 -0.85,-10.835 -2.53,-15.456 -1.69,-4.621 -4.28,-8.306 -7.78,-11.054 -3.43,-2.81 -7.71,-4.215 -12.83,-4.215 z M 1438,471.854 h -33.16 v -5.246 l 8.81,-6.932 v -44.964 l -23.23,57.048 h -8.15 l -23.61,-57.516 v 47.212 l 10.4,4.122 -3,6.089 h -24.26 v -5.246 l 8.8,-6.932 v -51.053 l -10.39,-4.403 3.09,-6.089 h 26.32 l 21.36,52.084 21.17,-52.084 h 27.35 v 5.246 l -8.9,6.932 v 52.552 l 10.4,3.091 z" />
  </mask>
  <g
     transform="matrix(0.3466395,0,0,0.3466395,0,-0.30496254)"
     id="g1099">
    <g
       id="g1039">
      <path
         id="path77"
         mask="url(#path-1-outside-1)"
         stroke-width="2"
         stroke="#313131"
         d="M 103.106,77.5023 H 68.2588 V 72.2564 L 78.4694,66.1675 72.7552,52.2099 H 43.8096 l -5.1521,12.5525 14.3323,6.651 -2.9976,6.0889 H 19.735 V 72.2564 L 29.852,64.6687 53.8328,6.87112 70.0387,2.09367 96.6424,66.6359 106.197,71.4134 Z M 58.4229,16.8944 46.8072,44.9969 h 23.0441 z" />
      <path
         id="path79"
         mask="url(#path-1-outside-1)"
         stroke-width="2"
         stroke="#313131"
         d="m 169.898,77.5023 h -59.765 v -5.2459 l 8.806,-6.9319 V 12.679 l -10.398,-2.7166 3.091,-6.08889 h 33.161 v 5.24581 l -8.899,6.93198 v 54.3316 h 21.077 l 14.519,-20.9832 5.153,2.1545 v 27.6342 z" />
      <path
         id="path81"
         mask="url(#path-1-outside-1)"
         stroke-width="2"
         stroke="#313131"
         d="m 225.529,2.93675 c 6.995,0 13.177,1.56126 18.548,4.68377 5.433,3.06008 9.617,7.33788 12.553,12.83348 2.997,5.4956 4.496,11.7094 4.496,18.6414 0,7.1193 -2.248,13.7078 -6.745,19.7655 -4.434,5.9952 -9.961,10.7726 -16.58,14.3323 -6.62,3.4972 -12.927,5.2458 -18.923,5.2458 -2.872,0 -5.714,-0.1561 -8.524,-0.4684 -4.684,-0.3122 -8.275,-0.4683 -10.773,-0.4683 h -14.8 v -5.2459 l 8.805,-6.9319 V 13.1474 l -10.398,-3.185 3.091,-6.08889 h 13.209 c 5.745,0 11.366,-0.18735 16.861,-0.56206 4.247,-0.2498 7.307,-0.3747 9.18,-0.3747 z m -3.934,66.79045 c 3.934,0 7.494,-1.1241 10.679,-3.3723 3.247,-2.2482 5.777,-5.3707 7.588,-9.3675 1.873,-3.9968 2.81,-8.4932 2.81,-13.4893 0,-5.9952 -0.906,-11.3971 -2.717,-16.2058 -1.748,-4.8711 -4.465,-8.743 -8.149,-11.6157 -3.623,-2.9352 -8.119,-4.4027 -13.49,-4.4027 -2.81,0 -5.402,0.7494 -7.775,2.2482 v 54.4253 c 3.185,1.1865 6.839,1.7798 10.96,1.7798 z" />
      <path
         id="path83"
         mask="url(#path-1-outside-1)"
         stroke-width="2"
         stroke="#313131"
         d="m 314.795,2 c 7.181,0 13.52,1.59248 19.016,4.77744 5.495,3.18496 9.742,7.58766 12.739,13.20826 2.998,5.6205 4.497,11.9904 4.497,19.1097 0,7.3067 -2.28,14.0513 -6.838,20.2339 -4.559,6.1825 -10.211,11.0849 -16.956,14.707 -6.682,3.5596 -13.052,5.3395 -19.109,5.3395 -7.182,0 -13.521,-1.5613 -19.016,-4.6838 -5.434,-3.185 -9.68,-7.5877 -12.74,-13.2082 -2.998,-5.6205 -4.497,-11.9904 -4.497,-19.1098 0,-7.3066 2.248,-14.0513 6.745,-20.2338 4.559,-6.245 10.21,-11.1474 16.955,-14.70703 C 302.336,3.81106 308.737,2 314.795,2 Z m -5.434,10.7727 c -3.497,0 -6.713,1.0928 -9.648,3.2786 -2.873,2.1857 -5.152,5.1834 -6.838,8.9928 -1.687,3.8095 -2.53,8.0873 -2.53,12.8335 0,5.6205 0.843,10.7727 2.53,15.4564 1.748,4.6214 4.34,8.3371 7.775,11.1474 3.497,2.7478 7.806,4.1217 12.927,4.1217 3.435,0 6.588,-1.0929 9.461,-3.2786 2.935,-2.1858 5.246,-5.1834 6.932,-8.9929 1.686,-3.8094 2.529,-8.0872 2.529,-12.8335 0,-5.6829 -0.843,-10.8351 -2.529,-15.4564 -1.686,-4.6213 -4.278,-8.3059 -7.775,-11.0537 -3.435,-2.8102 -7.713,-4.2153 -12.834,-4.2153 z" />
      <path
         id="path85"
         mask="url(#path-1-outside-1)"
         stroke-width="2"
         stroke="#313131"
         d="m 457.084,77.877 h -33.161 v -5.2459 l 8.805,-6.9319 V 20.7351 l -23.231,57.0482 h -8.15 L 377.741,20.2667 V 67.479 l 10.398,4.1217 -2.998,6.0889 h -24.262 v -5.2458 l 8.806,-6.932 v -51.053 l -10.398,-4.4027 3.091,-6.08892 h 26.323 l 21.358,52.08342 21.17,-52.08342 h 27.353 V 9.213 l -8.899,6.932 v 52.5518 l 10.398,3.0913 z" />
      <path
         id="path87"
         mask="url(#path-1-outside-1)"
         stroke-width="2"
         stroke="#313131"
         d="m 537.267,2 c 3.622,0 7.837,0.46838 12.646,1.40513 4.871,0.93675 8.431,1.93596 10.679,2.99761 V 26.3556 h -8.899 c -4.809,-9.0553 -11.429,-13.5829 -19.859,-13.5829 -3.435,0 -6.589,1.0928 -9.462,3.2786 -2.872,2.1857 -5.152,5.1834 -6.838,8.9928 -1.624,3.8095 -2.436,8.0873 -2.436,12.8335 0,5.3707 0.812,10.3043 2.436,14.8007 1.686,4.434 4.215,7.9936 7.588,10.679 3.372,2.6229 7.556,3.9344 12.552,3.9344 5.683,0 13.77,-3.1226 24.262,-9.3676 l 3.747,5.9952 -17.236,13.3956 c -2.748,0.8119 -5.402,1.3427 -7.963,1.5925 -2.498,0.3122 -5.183,0.4684 -8.056,0.4684 -6.994,0 -13.208,-1.5925 -18.641,-4.7775 -5.433,-3.1849 -9.649,-7.5564 -12.646,-13.1145 -2.998,-5.6205 -4.497,-11.9904 -4.497,-19.1098 0,-7.3066 2.249,-14.0513 6.745,-20.2338 4.496,-6.245 10.086,-11.1474 16.768,-14.70703 C 524.839,3.81106 531.209,2 537.267,2 Z" />
      <path
         id="path89"
         mask="url(#path-1-outside-1)"
         stroke-width="2"
         stroke="#313131"
         d="m 615.946,2 c 7.182,0 13.52,1.59248 19.016,4.77744 5.496,3.18496 9.742,7.58766 12.74,13.20826 2.997,5.6205 4.496,11.9904 4.496,19.1097 0,7.3067 -2.279,14.0513 -6.838,20.2339 -4.559,6.1825 -10.211,11.0849 -16.955,14.707 -6.683,3.5596 -13.052,5.3395 -19.11,5.3395 -7.182,0 -13.521,-1.5613 -19.016,-4.6838 -5.433,-3.185 -9.68,-7.5877 -12.74,-13.2082 -2.998,-5.6205 -4.496,-11.9904 -4.496,-19.1098 0,-7.3066 2.248,-14.0513 6.744,-20.2338 4.559,-6.245 10.211,-11.1474 16.955,-14.70703 C 603.487,3.81106 609.888,2 615.946,2 Z m -5.433,10.7727 c -3.498,0 -6.714,1.0928 -9.649,3.2786 -2.873,2.1857 -5.152,5.1834 -6.838,8.9928 -1.686,3.8095 -2.529,8.0873 -2.529,12.8335 0,5.6205 0.843,10.7727 2.529,15.4564 1.748,4.6214 4.34,8.3371 7.775,11.1474 3.497,2.7478 7.806,4.1217 12.927,4.1217 3.435,0 6.589,-1.0929 9.461,-3.2786 2.935,-2.1858 5.246,-5.1834 6.932,-8.9929 1.686,-3.8094 2.529,-8.0872 2.529,-12.8335 0,-5.6829 -0.843,-10.8351 -2.529,-15.4564 -1.686,-4.6213 -4.278,-8.3059 -7.775,-11.0537 -3.435,-2.8102 -7.712,-4.2153 -12.833,-4.2153 z" />
      <path
         id="path91"
         mask="url(#path-1-outside-1)"
         stroke-width="2"
         stroke="#313131"
         d="m 730.882,16.6133 v 60.889 h -8.056 L 678.892,27.386 v 39.0626 l 13.302,4.9648 -2.998,6.0889 H 662.03 v -5.2459 l 8.806,-7.4003 V 15.6766 l -10.398,-5.7142 3.091,-6.08889 h 16.487 l 42.81,48.71109 V 14.8335 l -13.302,-4.8711 3.091,-6.08889 h 27.166 v 5.24581 z" />
      <path
         id="path93"
         mask="url(#path-1-outside-1)"
         stroke-width="2"
         stroke="#313131"
         d="m 785.346,62.0458 c 0,-1.8735 -0.75,-3.6533 -2.248,-5.3395 -1.437,-1.6861 -3.279,-3.2474 -5.527,-4.6837 -2.248,-1.4364 -5.246,-3.185 -8.993,-5.2458 -4.621,-2.5605 -8.4,-4.8087 -11.335,-6.7446 -2.873,-1.936 -5.308,-4.1842 -7.306,-6.7447 -1.999,-2.5604 -2.998,-5.3707 -2.998,-8.4307 0,-3.1225 1.436,-6.4636 4.309,-10.0233 2.873,-3.6221 6.37,-6.65093 10.492,-9.08649 C 765.924,3.249 769.764,2 773.262,2 c 4.184,0 9.086,0.46838 14.707,1.40513 5.62,0.93675 9.742,1.93596 12.365,2.99761 V 26.9176 h -8.806 c -2.623,-5.0584 -5.526,-8.9928 -8.711,-11.8031 -3.123,-2.8102 -6.433,-4.2153 -9.93,-4.2153 -2.498,0 -4.465,0.8118 -5.902,2.4355 -1.436,1.5613 -2.154,3.5597 -2.154,5.9952 0,1.9984 0.749,3.9032 2.248,5.7142 1.561,1.7486 3.466,3.3723 5.714,4.8711 2.311,1.4364 5.402,3.2162 9.274,5.3395 4.559,2.498 8.244,4.6838 11.054,6.5573 2.81,1.8735 5.183,4.0592 7.119,6.5573 1.936,2.498 2.904,5.2458 2.904,8.2434 0,3.1225 -1.53,6.4948 -4.59,10.1169 -3.06,3.5597 -6.807,6.5885 -11.241,9.0865 -4.372,2.4356 -8.368,3.6533 -11.99,3.6533 -4.372,0 -9.618,-0.4683 -15.738,-1.4051 -6.058,-0.9367 -10.429,-1.9359 -13.114,-2.9976 V 54.5518 h 8.805 c 2.748,5.0585 5.933,8.9928 9.555,11.8031 3.622,2.8103 7.275,4.2154 10.96,4.2154 2.873,0 5.183,-0.8119 6.932,-2.4356 1.748,-1.6861 2.623,-3.7158 2.623,-6.0889 z" />
      <path
         id="path95"
         mask="url(#path-1-outside-1)"
         stroke-width="2"
         stroke="#313131"
         d="m 882.318,27.948 -5.152,2.0609 -13.208,-19.0161 h -8.712 v 57.704 l 10.491,2.7166 -3.091,6.0889 h -33.161 v -5.2459 l 8.806,-6.9319 V 10.9928 h -8.337 L 816.745,30.0089 811.593,27.948 V 2.18735 l 6.745,1.68616 h 57.235 l 6.745,-1.68616 z" />
      <path
         id="path97"
         mask="url(#path-1-outside-1)"
         stroke-width="2"
         stroke="#313131"
         d="m 963.509,77.5023 h -20.328 l -18.079,-32.4117 -4.122,-2.5292 2.342,-4.5901 h 4.309 c 3.373,0 6.027,-1.0304 7.963,-3.0913 1.936,-2.0608 2.903,-4.9648 2.903,-8.7118 0,-4.3715 -1.186,-7.9312 -3.559,-10.679 -2.311,-2.8102 -5.714,-4.2153 -10.211,-4.2153 -2.81,0 -5.433,0.8743 -7.868,2.6229 v 54.6126 l 10.397,2.9976 -2.997,6.0889 h -33.161 v -5.2458 l 8.805,-7.4003 V 12.96 l -10.398,-2.9039 3.092,-6.08892 h 15.55 c 5.433,0 10.772,-0.18735 16.018,-0.56205 3.747,-0.2498 6.557,-0.3747 8.431,-0.3747 4.809,0 9.055,0.8743 12.74,2.62291 3.747,1.68615 6.62,3.99681 8.618,6.93196 2.061,2.9352 3.091,6.2138 3.091,9.8359 0,4.3715 -1.936,8.4308 -5.808,12.1778 -3.872,3.747 -8.587,6.5573 -14.145,8.4308 l 7.494,2.1545 12.178,21.7327 9.742,4.4964 z" />
      <path
         id="path99"
         mask="url(#path-1-outside-1)"
         stroke-width="2"
         stroke="#313131"
         d="m 1039.45,16.0513 v 32.4116 c 0,6.5573 -1.66,12.1778 -4.97,16.8616 -3.24,4.6837 -7.3,8.2122 -12.17,10.5853 -4.81,2.3106 -9.5,3.466 -14.05,3.466 -6,0 -11.402,-1.2178 -16.21,-3.6534 -4.747,-2.498 -8.462,-5.9015 -11.148,-10.2106 -2.623,-4.3715 -3.934,-9.2738 -3.934,-14.707 V 12.679 l -10.304,-2.7166 2.997,-6.08889 h 33.159 v 5.24581 l -8.897,6.93198 v 31.3812 c 0,6.6822 1.718,11.8968 5.152,15.6438 3.435,3.6845 8.615,5.5268 15.555,5.5268 2.62,0 5.21,-0.7806 7.77,-2.3419 2.56,-1.6237 4.68,-3.9656 6.37,-7.0256 1.69,-3.0601 2.53,-6.6822 2.53,-10.8663 V 14.1778 l -10.87,-4.2154 3,-6.08889 h 24.92 v 5.24581 z" />
      <path
         id="path101"
         mask="url(#path-1-outside-1)"
         stroke-width="2"
         stroke="#313131"
         d="m 1098.04,2 c 3.62,0 7.83,0.46838 12.64,1.40513 4.87,0.93675 8.43,1.93596 10.68,2.99761 V 26.3556 h -8.9 c -4.81,-9.0553 -11.42,-13.5829 -19.86,-13.5829 -3.43,0 -6.58,1.0928 -9.46,3.2786 -2.87,2.1857 -5.15,5.1834 -6.84,8.9928 -1.62,3.8095 -2.43,8.0873 -2.43,12.8335 0,5.3707 0.81,10.3043 2.43,14.8007 1.69,4.434 4.22,7.9936 7.59,10.679 3.37,2.6229 7.56,3.9344 12.55,3.9344 5.69,0 13.78,-3.1226 24.27,-9.3676 l 3.74,5.9952 -17.23,13.3956 c -2.75,0.8119 -5.4,1.3427 -7.96,1.5925 -2.5,0.3122 -5.19,0.4684 -8.06,0.4684 -7,0 -13.21,-1.5925 -18.64,-4.7775 -5.44,-3.1849 -9.65,-7.5564 -12.65,-13.1145 -3,-5.6205 -4.49,-11.9904 -4.49,-19.1098 0,-7.3066 2.24,-14.0513 6.74,-20.2338 4.5,-6.245 10.09,-11.1474 16.77,-14.70703 C 1085.61,3.81106 1091.98,2 1098.04,2 Z" />
      <path
         id="path103"
         mask="url(#path-1-outside-1)"
         stroke-width="2"
         stroke="#313131"
         d="m 1203.32,27.948 -5.15,2.0609 -13.21,-19.0161 h -8.71 v 57.704 l 10.49,2.7166 -3.09,6.0889 h -33.16 v -5.2459 l 8.8,-6.9319 V 10.9928 h -8.33 l -13.21,19.0161 -5.15,-2.0609 V 2.18735 l 6.74,1.68616 h 57.24 l 6.74,-1.68616 z" />
      <path
         id="path105"
         mask="url(#path-1-outside-1)"
         stroke-width="2"
         stroke="#313131"
         d="m 1245.17,77.4086 h -33.16 v -5.2458 l 8.8,-7.4004 V 12.8663 l -10.4,-2.99758 3.1,-6.08889 h 33.16 v 5.24582 l -8.9,7.49405 v 51.8961 l 10.4,2.9039 z" />
      <path
         id="path107"
         mask="url(#path-1-outside-1)"
         stroke-width="2"
         stroke="#313131"
         d="m 1299.39,2 c 7.18,0 13.52,1.59248 19.02,4.77744 5.49,3.18496 9.74,7.58766 12.74,13.20826 2.99,5.6205 4.49,11.9904 4.49,19.1097 0,7.3067 -2.28,14.0513 -6.84,20.2339 -4.55,6.1825 -10.21,11.0849 -16.95,14.707 -6.68,3.5596 -13.05,5.3395 -19.11,5.3395 -7.18,0 -13.52,-1.5613 -19.02,-4.6838 -5.43,-3.185 -9.68,-7.5877 -12.74,-13.2082 -2.99,-5.6205 -4.49,-11.9904 -4.49,-19.1098 0,-7.3066 2.25,-14.0513 6.74,-20.2338 4.56,-6.245 10.21,-11.1474 16.96,-14.70703 C 1286.93,3.81106 1293.33,2 1299.39,2 Z m -5.43,10.7727 c -3.5,0 -6.72,1.0928 -9.65,3.2786 -2.87,2.1857 -5.15,5.1834 -6.84,8.9928 -1.69,3.8095 -2.53,8.0873 -2.53,12.8335 0,5.6205 0.84,10.7727 2.53,15.4564 1.75,4.6214 4.34,8.3371 7.78,11.1474 3.49,2.7478 7.8,4.1217 12.92,4.1217 3.44,0 6.59,-1.0929 9.46,-3.2786 2.94,-2.1858 5.25,-5.1834 6.94,-8.9929 1.68,-3.8094 2.53,-8.0872 2.53,-12.8335 0,-5.6829 -0.85,-10.8351 -2.53,-15.4564 -1.69,-4.6213 -4.28,-8.3059 -7.78,-11.0537 -3.43,-2.8102 -7.71,-4.2153 -12.83,-4.2153 z" />
      <path
         id="path109"
         mask="url(#path-1-outside-1)"
         stroke-width="2"
         stroke="#313131"
         d="m 1414.33,16.6133 v 60.889 h -8.06 L 1362.34,27.386 v 39.0626 l 13.3,4.9648 -3,6.0889 h -27.16 v -5.2459 l 8.8,-7.4003 V 15.6766 l -10.4,-5.7142 3.09,-6.08889 h 16.49 l 42.81,48.71109 V 14.8335 l -13.3,-4.8711 3.09,-6.08889 h 27.17 v 5.24581 z" />
      <path
         id="path145"
         mask="url(#path-1-outside-1)"
         stroke-width="2"
         stroke="#313131"
         d="m 86.6192,133.281 c 3.6221,0 7.8375,0.468 12.6461,1.405 4.8707,0.937 8.4307,1.936 10.6787,2.998 v 19.952 h -8.899 c -4.8085,-9.055 -11.4282,-13.582 -19.859,-13.582 -3.4347,0 -6.5885,1.092 -9.4612,3.278 -2.8727,2.186 -5.1521,5.184 -6.8383,8.993 -1.6237,3.809 -2.4355,8.087 -2.4355,12.834 0,5.37 0.8118,10.304 2.4355,14.8 1.6862,4.434 4.2154,7.994 7.5877,10.679 3.3723,2.623 7.5565,3.935 12.5525,3.935 5.683,0 13.7703,-3.123 24.2623,-9.368 l 3.747,5.995 -17.2366,13.396 c -2.7479,0.812 -5.402,1.342 -7.9624,1.592 -2.498,0.313 -5.1834,0.469 -8.0561,0.469 -6.9944,0 -13.2082,-1.593 -18.6414,-4.778 -5.4332,-3.185 -9.6485,-7.556 -12.6461,-13.114 -2.9977,-5.621 -4.4965,-11.991 -4.4965,-19.11 0,-7.307 2.2482,-14.051 6.7447,-20.234 4.4964,-6.245 10.0857,-11.147 16.7678,-14.707 6.6822,-3.622 13.0521,-5.433 19.1098,-5.433 z m 78.6788,0 c 7.182,0 13.521,1.592 19.016,4.777 5.496,3.185 9.743,7.588 12.74,13.209 2.998,5.62 4.497,11.99 4.497,19.109 0,7.307 -2.28,14.052 -6.839,20.234 -4.558,6.183 -10.21,11.085 -16.955,14.707 -6.682,3.56 -13.052,5.34 -19.11,5.34 -7.181,0 -13.52,-1.562 -19.016,-4.684 -5.433,-3.185 -9.679,-7.588 -12.74,-13.208 -2.997,-5.621 -4.496,-11.991 -4.496,-19.11 0,-7.307 2.248,-14.051 6.745,-20.234 4.559,-6.245 10.21,-11.147 16.955,-14.707 6.745,-3.622 13.146,-5.433 19.203,-5.433 z m -5.433,10.773 c -3.497,0 -6.713,1.092 -9.648,3.278 -2.873,2.186 -5.153,5.184 -6.839,8.993 -1.686,3.809 -2.529,8.087 -2.529,12.834 0,5.62 0.843,10.772 2.529,15.456 1.749,4.621 4.341,8.337 7.775,11.147 3.498,2.748 7.807,4.122 12.928,4.122 3.434,0 6.588,-1.093 9.461,-3.279 2.935,-2.185 5.246,-5.183 6.932,-8.992 1.686,-3.81 2.529,-8.088 2.529,-12.834 0,-5.683 -0.843,-10.835 -2.529,-15.456 -1.686,-4.622 -4.278,-8.306 -7.775,-11.054 -3.435,-2.81 -7.713,-4.215 -12.834,-4.215 z m 120.369,3.84 v 60.889 h -8.056 l -43.934,-50.116 v 39.062 l 13.302,4.965 -2.997,6.089 h -27.166 v -5.246 l 8.805,-7.4 v -49.179 l -10.398,-5.715 3.092,-6.089 h 16.487 l 42.809,48.712 v -37.752 l -13.302,-4.871 3.092,-6.089 h 27.165 v 5.246 z m 54.464,45.433 c 0,-1.874 -0.749,-3.654 -2.248,-5.34 -1.436,-1.686 -3.279,-3.247 -5.527,-4.684 -2.248,-1.436 -5.246,-3.184 -8.993,-5.245 -4.621,-2.561 -8.399,-4.809 -11.334,-6.745 -2.873,-1.936 -5.309,-4.184 -7.307,-6.745 -1.998,-2.56 -2.998,-5.37 -2.998,-8.43 0,-3.123 1.437,-6.464 4.31,-10.024 2.872,-3.622 6.369,-6.651 10.491,-9.086 4.184,-2.498 8.025,-3.747 11.522,-3.747 4.184,0 9.087,0.468 14.707,1.405 5.621,0.937 9.742,1.936 12.365,2.998 v 20.515 h -8.805 c -2.623,-5.059 -5.527,-8.993 -8.712,-11.804 -3.122,-2.81 -6.432,-4.215 -9.93,-4.215 -2.498,0 -4.465,0.812 -5.901,2.436 -1.436,1.561 -2.155,3.559 -2.155,5.995 0,1.998 0.75,3.903 2.249,5.714 1.561,1.749 3.466,3.372 5.714,4.871 2.31,1.436 5.402,3.216 9.274,5.34 4.559,2.498 8.243,4.683 11.053,6.557 2.811,1.873 5.184,4.059 7.12,6.557 1.936,2.498 2.904,5.246 2.904,8.244 0,3.122 -1.53,6.494 -4.59,10.117 -3.061,3.559 -6.808,6.588 -11.242,9.086 -4.371,2.436 -8.368,3.653 -11.99,3.653 -4.371,0 -9.617,-0.468 -15.737,-1.405 -6.058,-0.937 -10.43,-1.936 -13.115,-2.997 v -20.515 h 8.806 c 2.747,5.058 5.932,8.993 9.554,11.803 3.623,2.81 7.276,4.215 10.96,4.215 2.873,0 5.184,-0.812 6.932,-2.435 1.749,-1.687 2.623,-3.716 2.623,-6.089 z m 96.972,-34.098 -5.152,2.061 -13.208,-19.016 h -8.712 v 57.704 l 10.492,2.716 -3.091,6.089 h -33.161 v -5.246 l 8.805,-6.932 v -54.331 h -8.337 l -13.208,19.016 -5.152,-2.061 v -25.761 l 6.744,1.686 h 57.236 l 6.744,-1.686 z m 81.191,49.554 h -20.327 l -18.08,-32.411 -4.121,-2.53 2.342,-4.59 h 4.309 c 3.372,0 6.026,-1.03 7.962,-3.091 1.936,-2.061 2.904,-4.965 2.904,-8.712 0,-4.371 -1.187,-7.931 -3.56,-10.679 -2.31,-2.81 -5.714,-4.215 -10.21,-4.215 -2.81,0 -5.433,0.874 -7.869,2.623 v 54.612 l 10.398,2.998 -2.998,6.089 H 440.45 v -5.246 l 8.806,-7.4 v -51.99 l -10.398,-2.904 3.091,-6.089 h 15.55 c 5.433,0 10.773,-0.187 16.019,-0.562 3.747,-0.25 6.557,-0.375 8.43,-0.375 4.809,0 9.056,0.875 12.74,2.623 3.747,1.686 6.62,3.997 8.618,6.932 2.061,2.935 3.092,6.214 3.092,9.836 0,4.372 -1.936,8.431 -5.808,12.178 -3.872,3.747 -8.587,6.557 -14.145,8.431 l 7.494,2.154 12.178,21.733 9.742,4.496 z m 75.941,-61.451 v 32.412 c 0,6.557 -1.655,12.178 -4.965,16.861 -3.247,4.684 -7.307,8.213 -12.178,10.586 -4.808,2.31 -9.492,3.466 -14.051,3.466 -5.995,0 -11.397,-1.218 -16.206,-3.654 -4.746,-2.498 -8.462,-5.901 -11.147,-10.21 -2.623,-4.372 -3.934,-9.274 -3.934,-14.707 V 143.96 l -10.305,-2.717 2.998,-6.089 h 33.161 v 5.246 l -8.899,6.932 v 31.381 c 0,6.683 1.717,11.897 5.152,15.644 3.435,3.685 8.618,5.527 15.55,5.527 2.623,0 5.215,-0.781 7.775,-2.342 2.56,-1.624 4.684,-3.965 6.37,-7.026 1.686,-3.06 2.529,-6.682 2.529,-10.866 v -34.191 l -10.866,-4.216 2.997,-6.089 h 24.918 v 5.246 z m 58.588,-14.051 c 3.622,0 7.837,0.468 12.646,1.405 4.871,0.937 8.431,1.936 10.679,2.998 v 19.952 h -8.899 c -4.809,-9.055 -11.428,-13.582 -19.859,-13.582 -3.435,0 -6.589,1.092 -9.461,3.278 -2.873,2.186 -5.153,5.184 -6.839,8.993 -1.623,3.809 -2.435,8.087 -2.435,12.834 0,5.37 0.812,10.304 2.435,14.8 1.686,4.434 4.216,7.994 7.588,10.679 3.372,2.623 7.556,3.935 12.552,3.935 5.683,0 13.771,-3.123 24.262,-9.368 l 3.747,5.995 -17.236,13.396 c -2.748,0.812 -5.402,1.342 -7.962,1.592 -2.498,0.313 -5.184,0.469 -8.056,0.469 -6.995,0 -13.209,-1.593 -18.642,-4.778 -5.433,-3.185 -9.648,-7.556 -12.646,-13.114 -2.997,-5.621 -4.496,-11.991 -4.496,-19.11 0,-7.307 2.248,-14.051 6.744,-20.234 4.497,-6.245 10.086,-11.147 16.768,-14.707 6.682,-3.622 13.052,-5.433 19.11,-5.433 z m 105.283,25.948 -5.152,2.061 -13.208,-19.016 h -8.712 v 57.704 l 10.491,2.716 -3.091,6.089 H 699.84 v -5.246 l 8.806,-6.932 v -54.331 h -8.338 l -13.208,19.016 -5.152,-2.061 v -25.761 l 6.745,1.686 h 57.235 l 6.745,-1.686 z m 41.847,49.461 h -33.161 v -5.246 l 8.806,-7.401 v -51.896 l -10.398,-2.997 3.091,-6.089 h 33.161 v 5.246 l -8.899,7.494 v 51.896 l 10.398,2.904 z m 54.223,-75.409 c 7.182,0 13.521,1.592 19.017,4.777 5.495,3.185 9.742,7.588 12.739,13.209 2.998,5.62 4.497,11.99 4.497,19.109 0,7.307 -2.28,14.052 -6.839,20.234 -4.558,6.183 -10.21,11.085 -16.955,14.707 -6.682,3.56 -13.052,5.34 -19.109,5.34 -7.182,0 -13.521,-1.562 -19.017,-4.684 -5.433,-3.185 -9.679,-7.588 -12.739,-13.208 -2.998,-5.621 -4.497,-11.991 -4.497,-19.11 0,-7.307 2.248,-14.051 6.745,-20.234 4.559,-6.245 10.21,-11.147 16.955,-14.707 6.745,-3.622 13.146,-5.433 19.203,-5.433 z m -5.433,10.773 c -3.497,0 -6.713,1.092 -9.648,3.278 -2.873,2.186 -5.152,5.184 -6.839,8.993 -1.686,3.809 -2.529,8.087 -2.529,12.834 0,5.62 0.843,10.772 2.529,15.456 1.749,4.621 4.341,8.337 7.776,11.147 3.497,2.748 7.806,4.122 12.927,4.122 3.434,0 6.588,-1.093 9.461,-3.279 2.935,-2.185 5.246,-5.183 6.932,-8.992 1.686,-3.81 2.529,-8.088 2.529,-12.834 0,-5.683 -0.843,-10.835 -2.529,-15.456 -1.686,-4.622 -4.278,-8.306 -7.775,-11.054 -3.435,-2.81 -7.713,-4.215 -12.834,-4.215 z m 120.369,3.84 v 60.889 h -8.056 L 911.69,158.667 v 39.062 l 13.301,4.965 -2.997,6.089 h -27.166 v -5.246 l 8.805,-7.4 v -49.179 l -10.398,-5.715 3.092,-6.089 h 16.487 l 42.809,48.712 v -37.752 l -13.302,-4.871 3.092,-6.089 h 27.165 v 5.246 z m 120.341,60.889 h -34.84 v -5.246 l 10.21,-6.089 -5.72,-13.957 h -28.94 l -5.15,12.552 14.33,6.651 -3,6.089 h -30.26 v -5.246 l 10.12,-7.587 23.98,-57.798 16.21,-4.777 26.6,64.542 9.56,4.777 z m -44.68,-60.608 -11.61,28.103 h 23.04 z m 111.48,60.608 h -59.77 v -5.246 l 8.81,-6.932 V 143.96 l -10.4,-2.717 3.09,-6.089 h 33.16 v 5.246 l -8.9,6.932 v 54.332 h 21.08 l 14.52,-20.983 5.15,2.154 v 27.634 z m 55.63,-74.565 c 6.99,0 13.18,1.561 18.55,4.683 5.43,3.06 9.61,7.338 12.55,12.834 3,5.496 4.49,11.709 4.49,18.641 0,7.12 -2.24,13.708 -6.74,19.766 -4.43,5.995 -9.96,10.772 -16.58,14.332 -6.62,3.497 -12.93,5.246 -18.92,5.246 -2.88,0 -5.72,-0.156 -8.53,-0.468 -4.68,-0.313 -8.27,-0.469 -10.77,-0.469 h -14.8 v -5.246 l 8.8,-6.932 v -52.177 l -10.39,-3.185 3.09,-6.089 h 13.21 c 5.74,0 11.36,-0.187 16.86,-0.562 4.24,-0.249 7.3,-0.374 9.18,-0.374 z m -3.94,66.79 c 3.94,0 7.5,-1.124 10.68,-3.372 3.25,-2.248 5.78,-5.371 7.59,-9.368 1.87,-3.997 2.81,-8.493 2.81,-13.489 0,-5.995 -0.9,-11.397 -2.72,-16.206 -1.74,-4.871 -4.46,-8.743 -8.15,-11.615 -3.62,-2.936 -8.11,-4.403 -13.48,-4.403 -2.82,0 -5.41,0.749 -7.78,2.248 v 54.425 c 3.19,1.187 6.84,1.78 10.96,1.78 z m 93.2,-67.727 c 7.19,0 13.52,1.592 19.02,4.777 5.5,3.185 9.74,7.588 12.74,13.209 3,5.62 4.5,11.99 4.5,19.109 0,7.307 -2.28,14.052 -6.84,20.234 -4.56,6.183 -10.21,11.085 -16.96,14.707 -6.68,3.56 -13.05,5.34 -19.11,5.34 -7.18,0 -13.52,-1.562 -19.01,-4.684 -5.44,-3.185 -9.68,-7.588 -12.74,-13.208 -3,-5.621 -4.5,-11.991 -4.5,-19.11 0,-7.307 2.25,-14.051 6.74,-20.234 4.56,-6.245 10.22,-11.147 16.96,-14.707 6.74,-3.622 13.15,-5.433 19.2,-5.433 z m -5.43,10.773 c -3.5,0 -6.71,1.092 -9.65,3.278 -2.87,2.186 -5.15,5.184 -6.84,8.993 -1.68,3.809 -2.53,8.087 -2.53,12.834 0,5.62 0.85,10.772 2.53,15.456 1.75,4.621 4.34,8.337 7.78,11.147 3.5,2.748 7.8,4.122 12.93,4.122 3.43,0 6.58,-1.093 9.46,-3.279 2.93,-2.185 5.24,-5.183 6.93,-8.992 1.68,-3.81 2.53,-8.088 2.53,-12.834 0,-5.683 -0.85,-10.835 -2.53,-15.456 -1.69,-4.622 -4.28,-8.306 -7.78,-11.054 -3.43,-2.81 -7.71,-4.215 -12.83,-4.215 z M 1438,209.158 h -33.16 v -5.246 l 8.81,-6.932 v -44.964 l -23.23,57.048 h -8.15 l -23.61,-57.516 v 47.212 l 10.4,4.122 -3,6.089 h -24.26 v -5.246 l 8.8,-6.932 V 145.74 l -10.39,-4.403 3.09,-6.089 h 26.32 l 21.36,52.084 21.17,-52.084 h 27.35 v 5.246 l -8.9,6.932 v 52.552 l 10.4,3.091 z" />
    </g>
    <g
       id="g1059">
      <path
         id="path111"
         mask="url(#path-1-outside-1)"
         stroke-width="2"
         stroke="#313131"
         d="M 84.371,340.131 H 49.5238 v -5.246 l 10.2106,-6.088 -5.7142,-13.958 H 25.0745 l -5.1521,12.552 14.3323,6.651 -2.9976,6.089 H 1 v -5.246 l 10.1169,-7.587 23.9809,-57.798 16.2058,-4.777 26.6038,64.542 9.5549,4.777 z M 39.6879,279.523 28.0721,307.626 h 23.0442 z" />
      <path
         id="path113"
         mask="url(#path-1-outside-1)"
         stroke-width="2"
         stroke="#313131"
         d="M 151.163,340.131 H 91.3981 v -5.246 l 8.8059,-6.932 v -52.645 l -10.3984,-2.717 3.0913,-6.088 h 33.1611 v 5.245 l -8.899,6.932 v 54.332 h 21.077 l 14.519,-20.983 5.153,2.154 v 27.634 z" />
      <path
         id="path115"
         mask="url(#path-1-outside-1)"
         stroke-width="2"
         stroke="#313131"
         d="m 206.794,265.566 c 6.995,0 13.177,1.561 18.548,4.684 5.433,3.06 9.617,7.337 12.552,12.833 2.998,5.496 4.497,11.709 4.497,18.641 0,7.12 -2.248,13.708 -6.745,19.766 -4.434,5.995 -9.961,10.773 -16.58,14.332 -6.62,3.497 -12.927,5.246 -18.923,5.246 -2.872,0 -5.714,-0.156 -8.524,-0.468 -4.684,-0.313 -8.275,-0.469 -10.773,-0.469 h -14.8 v -5.246 l 8.805,-6.932 v -52.177 l -10.398,-3.185 3.091,-6.088 h 13.209 c 5.745,0 11.365,-0.188 16.861,-0.563 4.247,-0.249 7.307,-0.374 9.18,-0.374 z m -3.934,66.79 c 3.934,0 7.494,-1.124 10.679,-3.372 3.247,-2.248 5.777,-5.371 7.588,-9.368 1.873,-3.996 2.81,-8.493 2.81,-13.489 0,-5.995 -0.906,-11.397 -2.717,-16.206 -1.748,-4.871 -4.465,-8.743 -8.149,-11.615 -3.623,-2.936 -8.119,-4.403 -13.49,-4.403 -2.81,0 -5.402,0.749 -7.775,2.248 v 54.425 c 3.185,1.187 6.839,1.78 10.96,1.78 z" />
      <path
         id="path117"
         mask="url(#path-1-outside-1)"
         stroke-width="2"
         stroke="#313131"
         d="m 296.059,264.629 c 7.182,0 13.521,1.592 19.017,4.777 5.495,3.185 9.742,7.588 12.739,13.209 2.998,5.62 4.497,11.99 4.497,19.109 0,7.307 -2.28,14.052 -6.839,20.234 -4.558,6.183 -10.21,11.085 -16.955,14.707 -6.682,3.56 -13.052,5.34 -19.109,5.34 -7.182,0 -13.521,-1.561 -19.017,-4.684 -5.433,-3.185 -9.679,-7.588 -12.739,-13.208 -2.998,-5.621 -4.497,-11.991 -4.497,-19.11 0,-7.307 2.248,-14.051 6.745,-20.234 4.559,-6.245 10.21,-11.147 16.955,-14.707 6.745,-3.622 13.146,-5.433 19.203,-5.433 z m -5.433,10.773 c -3.497,0 -6.713,1.093 -9.648,3.278 -2.873,2.186 -5.152,5.184 -6.839,8.993 -1.686,3.81 -2.529,8.087 -2.529,12.834 0,5.62 0.843,10.772 2.529,15.456 1.749,4.621 4.341,8.337 7.776,11.147 3.497,2.748 7.806,4.122 12.927,4.122 3.434,0 6.588,-1.093 9.461,-3.279 2.935,-2.185 5.246,-5.183 6.932,-8.992 1.686,-3.81 2.529,-8.088 2.529,-12.834 0,-5.683 -0.843,-10.835 -2.529,-15.456 -1.686,-4.622 -4.278,-8.306 -7.775,-11.054 -3.435,-2.81 -7.713,-4.215 -12.834,-4.215 z" />
      <path
         id="path119"
         mask="url(#path-1-outside-1)"
         stroke-width="2"
         stroke="#313131"
         d="m 438.349,340.506 h -33.162 v -5.246 l 8.806,-6.932 v -44.964 l -23.232,57.048 h -8.149 l -23.606,-57.516 v 47.212 l 10.398,4.122 -2.998,6.089 h -24.262 v -5.246 l 8.806,-6.932 v -51.053 l -10.398,-4.403 3.091,-6.089 h 26.323 l 21.358,52.084 21.17,-52.084 h 27.353 v 5.246 l -8.899,6.932 v 52.552 l 10.398,3.091 z" />
      <path
         id="path121"
         mask="url(#path-1-outside-1)"
         stroke-width="2"
         stroke="#313131"
         d="m 518.532,264.629 c 3.622,0 7.837,0.468 12.646,1.405 4.871,0.937 8.431,1.936 10.679,2.998 v 19.953 h -8.899 c -4.809,-9.056 -11.429,-13.583 -19.86,-13.583 -3.434,0 -6.588,1.093 -9.461,3.278 -2.872,2.186 -5.152,5.184 -6.838,8.993 -1.624,3.81 -2.436,8.087 -2.436,12.834 0,5.37 0.812,10.304 2.436,14.8 1.686,4.434 4.215,7.994 7.588,10.679 3.372,2.623 7.556,3.935 12.552,3.935 5.683,0 13.77,-3.123 24.262,-9.368 l 3.747,5.995 -17.236,13.396 c -2.748,0.812 -5.402,1.343 -7.963,1.592 -2.498,0.313 -5.183,0.469 -8.056,0.469 -6.994,0 -13.208,-1.593 -18.641,-4.778 -5.433,-3.185 -9.649,-7.556 -12.646,-13.114 -2.998,-5.621 -4.497,-11.991 -4.497,-19.11 0,-7.307 2.249,-14.051 6.745,-20.234 4.496,-6.245 10.086,-11.147 16.768,-14.707 6.682,-3.622 13.052,-5.433 19.11,-5.433 z" />
      <path
         id="path123"
         mask="url(#path-1-outside-1)"
         stroke-width="2"
         stroke="#313131"
         d="m 597.211,264.629 c 7.182,0 13.52,1.592 19.016,4.777 5.495,3.185 9.742,7.588 12.74,13.209 2.997,5.62 4.496,11.99 4.496,19.109 0,7.307 -2.279,14.052 -6.838,20.234 -4.559,6.183 -10.211,11.085 -16.955,14.707 -6.683,3.56 -13.053,5.34 -19.11,5.34 -7.182,0 -13.521,-1.561 -19.016,-4.684 -5.433,-3.185 -9.68,-7.588 -12.74,-13.208 -2.998,-5.621 -4.496,-11.991 -4.496,-19.11 0,-7.307 2.248,-14.051 6.744,-20.234 4.559,-6.245 10.211,-11.147 16.955,-14.707 6.745,-3.622 13.146,-5.433 19.204,-5.433 z m -5.433,10.773 c -3.498,0 -6.714,1.093 -9.649,3.278 -2.873,2.186 -5.152,5.184 -6.838,8.993 -1.686,3.81 -2.529,8.087 -2.529,12.834 0,5.62 0.843,10.772 2.529,15.456 1.748,4.621 4.34,8.337 7.775,11.147 3.497,2.748 7.806,4.122 12.927,4.122 3.435,0 6.588,-1.093 9.461,-3.279 2.935,-2.185 5.246,-5.183 6.932,-8.992 1.686,-3.81 2.529,-8.088 2.529,-12.834 0,-5.683 -0.843,-10.835 -2.529,-15.456 -1.686,-4.622 -4.278,-8.306 -7.775,-11.054 -3.435,-2.81 -7.712,-4.215 -12.833,-4.215 z" />
      <path
         id="path125"
         mask="url(#path-1-outside-1)"
         stroke-width="2"
         stroke="#313131"
         d="m 712.147,279.242 v 60.889 h -8.056 l -43.934,-50.116 v 39.063 l 13.302,4.964 -2.998,6.089 h -27.166 v -5.246 l 8.806,-7.4 v -49.179 l -10.398,-5.715 3.091,-6.088 h 16.487 l 42.81,48.711 v -37.751 l -13.302,-4.872 3.091,-6.088 h 27.166 v 5.245 z" />
      <path
         id="path127"
         mask="url(#path-1-outside-1)"
         stroke-width="2"
         stroke="#313131"
         d="m 766.611,324.675 c 0,-1.874 -0.75,-3.653 -2.248,-5.34 -1.437,-1.686 -3.279,-3.247 -5.527,-4.683 -2.249,-1.437 -5.246,-3.185 -8.993,-5.246 -4.621,-2.561 -8.4,-4.809 -11.335,-6.745 -2.873,-1.936 -5.308,-4.184 -7.307,-6.744 -1.998,-2.561 -2.997,-5.371 -2.997,-8.431 0,-3.123 1.436,-6.464 4.309,-10.023 2.873,-3.623 6.37,-6.651 10.492,-9.087 4.184,-2.498 8.024,-3.747 11.522,-3.747 4.184,0 9.086,0.468 14.707,1.405 5.62,0.937 9.742,1.936 12.365,2.998 v 20.515 h -8.806 c -2.623,-5.059 -5.527,-8.993 -8.712,-11.803 -3.122,-2.811 -6.432,-4.216 -9.929,-4.216 -2.498,0 -4.465,0.812 -5.902,2.436 -1.436,1.561 -2.154,3.559 -2.154,5.995 0,1.998 0.749,3.903 2.248,5.714 1.561,1.749 3.466,3.372 5.714,4.871 2.311,1.437 5.402,3.216 9.274,5.34 4.559,2.498 8.244,4.683 11.054,6.557 2.81,1.873 5.183,4.059 7.119,6.557 1.936,2.498 2.904,5.246 2.904,8.244 0,3.122 -1.53,6.495 -4.59,10.117 -3.06,3.559 -6.807,6.588 -11.241,9.086 -4.372,2.436 -8.368,3.653 -11.991,3.653 -4.371,0 -9.617,-0.468 -15.737,-1.405 -6.058,-0.936 -10.429,-1.936 -13.114,-2.997 v -20.515 h 8.805 c 2.748,5.058 5.933,8.993 9.555,11.803 3.622,2.81 7.275,4.215 10.96,4.215 2.873,0 5.183,-0.812 6.932,-2.435 1.748,-1.686 2.623,-3.716 2.623,-6.089 z" />
      <path
         id="path129"
         mask="url(#path-1-outside-1)"
         stroke-width="2"
         stroke="#313131"
         d="m 863.583,290.577 -5.152,2.061 -13.208,-19.016 h -8.712 v 57.704 l 10.491,2.716 -3.091,6.089 H 810.75 v -5.246 l 8.806,-6.932 v -54.331 h -8.338 l -13.208,19.016 -5.152,-2.061 v -25.761 l 6.745,1.687 h 57.235 l 6.745,-1.687 z" />
      <path
         id="path131"
         mask="url(#path-1-outside-1)"
         stroke-width="2"
         stroke="#313131"
         d="m 944.774,340.131 h -20.328 l -18.079,-32.411 -4.122,-2.53 2.342,-4.59 h 4.309 c 3.372,0 6.027,-1.03 7.963,-3.091 1.935,-2.061 2.903,-4.965 2.903,-8.712 0,-4.371 -1.186,-7.931 -3.559,-10.679 -2.311,-2.81 -5.714,-4.215 -10.211,-4.215 -2.81,0 -5.433,0.874 -7.869,2.623 v 54.612 l 10.398,2.998 -2.997,6.089 h -33.161 v -5.246 l 8.805,-7.4 v -51.99 l -10.398,-2.904 3.092,-6.089 h 15.55 c 5.433,0 10.772,-0.187 16.018,-0.562 3.747,-0.25 6.557,-0.375 8.431,-0.375 4.809,0 9.055,0.875 12.74,2.623 3.747,1.686 6.619,3.997 8.618,6.932 2.061,2.935 3.091,6.214 3.091,9.836 0,4.372 -1.936,8.431 -5.808,12.178 -3.872,3.747 -8.587,6.557 -14.145,8.431 l 7.494,2.154 12.178,21.733 9.742,4.496 z" />
      <path
         id="path133"
         mask="url(#path-1-outside-1)"
         stroke-width="2"
         stroke="#313131"
         d="m 1020.71,278.68 v 32.412 c 0,6.557 -1.65,12.178 -4.96,16.861 -3.25,4.684 -7.31,8.213 -12.18,10.586 -4.807,2.31 -9.491,3.466 -14.05,3.466 -5.995,0 -11.397,-1.218 -16.205,-3.654 -4.747,-2.498 -8.462,-5.901 -11.148,-10.21 -2.623,-4.372 -3.934,-9.274 -3.934,-14.707 v -38.126 l -10.304,-2.717 2.997,-6.088 h 33.161 v 5.245 l -8.899,6.932 v 31.382 c 0,6.682 1.718,11.896 5.152,15.643 3.435,3.685 8.618,5.527 15.55,5.527 2.623,0 5.21,-0.781 7.78,-2.342 2.56,-1.623 4.68,-3.965 6.37,-7.025 1.68,-3.06 2.52,-6.683 2.52,-10.867 v -34.191 l -10.86,-4.216 3,-6.088 h 24.91 v 5.245 z" />
      <path
         id="path135"
         mask="url(#path-1-outside-1)"
         stroke-width="2"
         stroke="#313131"
         d="m 1079.3,264.629 c 3.62,0 7.84,0.468 12.65,1.405 4.87,0.937 8.43,1.936 10.68,2.998 v 19.953 h -8.9 c -4.81,-9.056 -11.43,-13.583 -19.86,-13.583 -3.44,0 -6.59,1.093 -9.46,3.278 -2.87,2.186 -5.15,5.184 -6.84,8.993 -1.62,3.81 -2.44,8.087 -2.44,12.834 0,5.37 0.82,10.304 2.44,14.8 1.69,4.434 4.22,7.994 7.59,10.679 3.37,2.623 7.55,3.935 12.55,3.935 5.68,0 13.77,-3.123 24.26,-9.368 l 3.75,5.995 -17.24,13.396 c -2.75,0.812 -5.4,1.343 -7.96,1.592 -2.5,0.313 -5.18,0.469 -8.06,0.469 -6.99,0 -13.2,-1.593 -18.64,-4.778 -5.43,-3.185 -9.65,-7.556 -12.64,-13.114 -3,-5.621 -4.5,-11.991 -4.5,-19.11 0,-7.307 2.25,-14.051 6.74,-20.234 4.5,-6.245 10.09,-11.147 16.77,-14.707 6.68,-3.622 13.05,-5.433 19.11,-5.433 z" />
      <path
         id="path137"
         mask="url(#path-1-outside-1)"
         stroke-width="2"
         stroke="#313131"
         d="m 1184.59,290.577 -5.16,2.061 -13.21,-19.016 h -8.71 v 57.704 l 10.49,2.716 -3.09,6.089 h -33.16 v -5.246 l 8.81,-6.932 v -54.331 h -8.34 l -13.21,19.016 -5.15,-2.061 v -25.761 l 6.75,1.687 h 57.23 l 6.75,-1.687 z" />
      <path
         id="path139"
         mask="url(#path-1-outside-1)"
         stroke-width="2"
         stroke="#313131"
         d="m 1226.43,340.038 h -33.16 v -5.246 l 8.81,-7.401 v -51.896 l -10.4,-2.997 3.09,-6.089 h 33.16 v 5.246 l -8.9,7.494 v 51.896 l 10.4,2.904 z" />
      <path
         id="path141"
         mask="url(#path-1-outside-1)"
         stroke-width="2"
         stroke="#313131"
         d="m 1280.66,264.629 c 7.18,0 13.52,1.592 19.01,4.777 5.5,3.185 9.74,7.588 12.74,13.209 3,5.62 4.5,11.99 4.5,19.109 0,7.307 -2.28,14.052 -6.84,20.234 -4.56,6.183 -10.21,11.085 -16.96,14.707 -6.68,3.56 -13.05,5.34 -19.11,5.34 -7.18,0 -13.52,-1.561 -19.01,-4.684 -5.43,-3.185 -9.68,-7.588 -12.74,-13.208 -3,-5.621 -4.5,-11.991 -4.5,-19.11 0,-7.307 2.25,-14.051 6.75,-20.234 4.56,-6.245 10.21,-11.147 16.95,-14.707 6.75,-3.622 13.15,-5.433 19.21,-5.433 z m -5.44,10.773 c -3.49,0 -6.71,1.093 -9.65,3.278 -2.87,2.186 -5.15,5.184 -6.83,8.993 -1.69,3.81 -2.53,8.087 -2.53,12.834 0,5.62 0.84,10.772 2.53,15.456 1.74,4.621 4.34,8.337 7.77,11.147 3.5,2.748 7.81,4.122 12.93,4.122 3.43,0 6.59,-1.093 9.46,-3.279 2.93,-2.185 5.25,-5.183 6.93,-8.992 1.69,-3.81 2.53,-8.088 2.53,-12.834 0,-5.683 -0.84,-10.835 -2.53,-15.456 -1.68,-4.622 -4.28,-8.306 -7.77,-11.054 -3.44,-2.81 -7.72,-4.215 -12.84,-4.215 z" />
      <path
         id="path143"
         mask="url(#path-1-outside-1)"
         stroke-width="2"
         stroke="#313131"
         d="m 1395.59,279.242 v 60.889 h -8.05 l -43.94,-50.116 v 39.063 l 13.3,4.964 -2.99,6.089 h -27.17 v -5.246 l 8.81,-7.4 v -49.179 l -10.4,-5.715 3.09,-6.088 h 16.49 l 42.81,48.711 v -37.751 l -13.31,-4.872 3.1,-6.088 h 27.16 v 5.245 z" />
      <path
         id="path147"
         mask="url(#path-1-outside-1)"
         stroke-width="2"
         stroke="#313131"
         d="m 86.6192,395.977 c 3.6221,0 7.8375,0.468 12.6461,1.405 4.8707,0.937 8.4307,1.936 10.6787,2.998 v 19.953 h -8.899 C 96.2365,411.277 89.6168,406.75 81.186,406.75 c -3.4347,0 -6.5885,1.093 -9.4612,3.278 -2.8727,2.186 -5.1521,5.184 -6.8383,8.993 -1.6237,3.81 -2.4355,8.088 -2.4355,12.834 0,5.37 0.8118,10.304 2.4355,14.8 1.6862,4.434 4.2154,7.994 7.5877,10.679 3.3723,2.623 7.5565,3.935 12.5525,3.935 5.683,0 13.7703,-3.123 24.2623,-9.368 l 3.747,5.995 -17.2366,13.396 c -2.7479,0.812 -5.402,1.343 -7.9624,1.593 -2.498,0.312 -5.1834,0.468 -8.0561,0.468 -6.9944,0 -13.2082,-1.593 -18.6414,-4.778 -5.4332,-3.185 -9.6485,-7.556 -12.6461,-13.114 -2.9977,-5.621 -4.4965,-11.991 -4.4965,-19.11 0,-7.307 2.2482,-14.051 6.7447,-20.234 4.4964,-6.245 10.0857,-11.147 16.7678,-14.707 6.6822,-3.622 13.0521,-5.433 19.1098,-5.433 z m 78.6788,0 c 7.182,0 13.521,1.593 19.016,4.778 5.496,3.185 9.743,7.587 12.74,13.208 2.998,5.62 4.497,11.99 4.497,19.11 0,7.306 -2.28,14.051 -6.839,20.233 -4.558,6.183 -10.21,11.085 -16.955,14.707 -6.682,3.56 -13.052,5.34 -19.11,5.34 -7.181,0 -13.52,-1.561 -19.016,-4.684 -5.433,-3.185 -9.679,-7.588 -12.74,-13.208 -2.997,-5.621 -4.496,-11.991 -4.496,-19.11 0,-7.307 2.248,-14.051 6.745,-20.234 4.559,-6.245 10.21,-11.147 16.955,-14.707 6.745,-3.622 13.146,-5.433 19.203,-5.433 z m -5.433,10.773 c -3.497,0 -6.713,1.093 -9.648,3.278 -2.873,2.186 -5.153,5.184 -6.839,8.993 -1.686,3.81 -2.529,8.088 -2.529,12.834 0,5.62 0.843,10.772 2.529,15.456 1.749,4.621 4.341,8.337 7.775,11.147 3.498,2.748 7.807,4.122 12.928,4.122 3.434,0 6.588,-1.093 9.461,-3.278 2.935,-2.186 5.246,-5.184 6.932,-8.993 1.686,-3.81 2.529,-8.088 2.529,-12.834 0,-5.683 -0.843,-10.835 -2.529,-15.456 -1.686,-4.621 -4.278,-8.306 -7.775,-11.054 -3.435,-2.81 -7.713,-4.215 -12.834,-4.215 z m 120.369,3.84 v 60.889 h -8.056 l -43.934,-50.116 v 39.063 l 13.302,4.964 -2.997,6.089 h -27.166 v -5.245 l 8.805,-7.401 v -49.179 l -10.398,-5.714 3.092,-6.089 h 16.487 l 42.809,48.711 v -37.751 l -13.302,-4.871 3.092,-6.089 h 27.165 v 5.245 z m 54.464,45.433 c 0,-1.874 -0.749,-3.653 -2.248,-5.34 -1.436,-1.686 -3.279,-3.247 -5.527,-4.683 -2.248,-1.437 -5.246,-3.185 -8.993,-5.246 -4.621,-2.561 -8.399,-4.809 -11.334,-6.745 -2.873,-1.936 -5.309,-4.184 -7.307,-6.744 -1.998,-2.561 -2.998,-5.371 -2.998,-8.431 0,-3.123 1.437,-6.464 4.31,-10.023 2.872,-3.622 6.369,-6.651 10.491,-9.087 4.184,-2.498 8.025,-3.747 11.522,-3.747 4.184,0 9.087,0.468 14.707,1.405 5.621,0.937 9.742,1.936 12.365,2.998 v 20.515 h -8.805 c -2.623,-5.059 -5.527,-8.993 -8.712,-11.803 -3.122,-2.811 -6.432,-4.216 -9.93,-4.216 -2.498,0 -4.465,0.812 -5.901,2.436 -1.436,1.561 -2.155,3.559 -2.155,5.995 0,1.998 0.75,3.903 2.249,5.714 1.561,1.749 3.466,3.373 5.714,4.871 2.31,1.437 5.402,3.216 9.274,5.34 4.559,2.498 8.243,4.684 11.053,6.557 2.811,1.874 5.184,4.059 7.12,6.557 1.936,2.498 2.904,5.246 2.904,8.244 0,3.122 -1.53,6.495 -4.59,10.117 -3.061,3.559 -6.808,6.588 -11.242,9.086 -4.371,2.436 -8.368,3.654 -11.99,3.654 -4.371,0 -9.617,-0.469 -15.737,-1.406 -6.058,-0.936 -10.43,-1.936 -13.115,-2.997 v -20.515 h 8.806 c 2.747,5.058 5.932,8.993 9.554,11.803 3.623,2.81 7.276,4.215 10.96,4.215 2.873,0 5.184,-0.811 6.932,-2.435 1.749,-1.686 2.623,-3.716 2.623,-6.089 z m 96.972,-34.098 -5.152,2.061 -13.208,-19.016 h -8.712 v 57.704 l 10.492,2.716 -3.091,6.089 h -33.161 v -5.245 l 8.805,-6.932 V 404.97 h -8.337 l -13.208,19.016 -5.152,-2.061 v -25.761 l 6.744,1.687 h 57.236 l 6.744,-1.687 z m 81.191,49.554 h -20.327 l -18.08,-32.411 -4.121,-2.529 2.342,-4.591 h 4.309 c 3.372,0 6.026,-1.03 7.962,-3.091 1.936,-2.061 2.904,-4.965 2.904,-8.712 0,-4.371 -1.187,-7.931 -3.56,-10.679 -2.31,-2.81 -5.714,-4.215 -10.21,-4.215 -2.81,0 -5.433,0.874 -7.869,2.623 v 54.613 l 10.398,2.997 -2.998,6.089 H 440.45 v -5.246 l 8.806,-7.4 v -51.99 l -10.398,-2.904 3.091,-6.089 h 15.55 c 5.433,0 10.773,-0.187 16.019,-0.562 3.747,-0.25 6.557,-0.374 8.43,-0.374 4.809,0 9.056,0.874 12.74,2.622 3.747,1.687 6.62,3.997 8.618,6.932 2.061,2.936 3.092,6.214 3.092,9.836 0,4.372 -1.936,8.431 -5.808,12.178 -3.872,3.747 -8.587,6.557 -14.145,8.431 l 7.494,2.154 12.178,21.733 9.742,4.496 z m 75.941,-61.451 v 32.412 c 0,6.557 -1.655,12.178 -4.965,16.862 -3.247,4.683 -7.307,8.212 -12.178,10.585 -4.808,2.311 -9.492,3.466 -14.051,3.466 -5.995,0 -11.397,-1.218 -16.206,-3.653 -4.746,-2.498 -8.462,-5.902 -11.147,-10.211 -2.623,-4.372 -3.934,-9.274 -3.934,-14.707 v -38.126 l -10.305,-2.716 2.998,-6.089 h 33.161 v 5.245 l -8.899,6.932 v 31.382 c 0,6.682 1.717,11.896 5.152,15.643 3.435,3.685 8.618,5.527 15.55,5.527 2.623,0 5.215,-0.78 7.775,-2.342 2.56,-1.623 4.684,-3.965 6.37,-7.025 1.686,-3.06 2.529,-6.682 2.529,-10.867 v -34.191 l -10.866,-4.215 2.997,-6.089 h 24.918 v 5.245 z m 58.588,-14.051 c 3.622,0 7.837,0.468 12.646,1.405 4.871,0.937 8.431,1.936 10.679,2.998 v 19.953 h -8.899 c -4.809,-9.056 -11.428,-13.583 -19.859,-13.583 -3.435,0 -6.589,1.093 -9.461,3.278 -2.873,2.186 -5.153,5.184 -6.839,8.993 -1.623,3.81 -2.435,8.088 -2.435,12.834 0,5.37 0.812,10.304 2.435,14.8 1.686,4.434 4.216,7.994 7.588,10.679 3.372,2.623 7.556,3.935 12.552,3.935 5.683,0 13.771,-3.123 24.262,-9.368 l 3.747,5.995 -17.236,13.396 c -2.748,0.812 -5.402,1.343 -7.962,1.593 -2.498,0.312 -5.184,0.468 -8.056,0.468 -6.995,0 -13.209,-1.593 -18.642,-4.778 -5.433,-3.185 -9.648,-7.556 -12.646,-13.114 -2.997,-5.621 -4.496,-11.991 -4.496,-19.11 0,-7.307 2.248,-14.051 6.744,-20.234 4.497,-6.245 10.086,-11.147 16.768,-14.707 6.682,-3.622 13.052,-5.433 19.11,-5.433 z m 105.283,25.948 -5.152,2.061 -13.208,-19.016 h -8.712 v 57.704 l 10.491,2.716 -3.091,6.089 H 699.84 v -5.245 l 8.806,-6.932 V 404.97 h -8.338 l -13.208,19.016 -5.152,-2.061 v -25.761 l 6.745,1.687 h 57.235 l 6.745,-1.687 z m 41.847,49.461 h -33.161 v -5.246 l 8.806,-7.4 v -51.897 l -10.398,-2.997 3.091,-6.089 h 33.161 v 5.246 l -8.899,7.494 v 51.896 l 10.398,2.904 z m 54.223,-75.409 c 7.182,0 13.521,1.593 19.017,4.778 5.495,3.185 9.742,7.587 12.739,13.208 2.998,5.62 4.497,11.99 4.497,19.11 0,7.306 -2.28,14.051 -6.839,20.233 -4.558,6.183 -10.21,11.085 -16.955,14.707 -6.682,3.56 -13.052,5.34 -19.109,5.34 -7.182,0 -13.521,-1.561 -19.017,-4.684 -5.433,-3.185 -9.679,-7.588 -12.739,-13.208 -2.998,-5.621 -4.497,-11.991 -4.497,-19.11 0,-7.307 2.248,-14.051 6.745,-20.234 4.559,-6.245 10.21,-11.147 16.955,-14.707 6.745,-3.622 13.146,-5.433 19.203,-5.433 z m -5.433,10.773 c -3.497,0 -6.713,1.093 -9.648,3.278 -2.873,2.186 -5.152,5.184 -6.839,8.993 -1.686,3.81 -2.529,8.088 -2.529,12.834 0,5.62 0.843,10.772 2.529,15.456 1.749,4.621 4.341,8.337 7.776,11.147 3.497,2.748 7.806,4.122 12.927,4.122 3.434,0 6.588,-1.093 9.461,-3.278 2.935,-2.186 5.246,-5.184 6.932,-8.993 1.686,-3.81 2.529,-8.088 2.529,-12.834 0,-5.683 -0.843,-10.835 -2.529,-15.456 -1.686,-4.621 -4.278,-8.306 -7.775,-11.054 -3.435,-2.81 -7.713,-4.215 -12.834,-4.215 z m 120.369,3.84 v 60.889 h -8.056 L 911.69,421.363 v 39.063 l 13.301,4.964 -2.997,6.089 h -27.166 v -5.245 l 8.805,-7.401 v -49.179 l -10.398,-5.714 3.092,-6.089 h 16.487 l 42.809,48.711 v -37.751 l -13.302,-4.871 3.092,-6.089 h 27.165 v 5.245 z m 120.341,60.889 h -34.84 v -5.245 l 10.21,-6.089 -5.72,-13.958 h -28.94 l -5.15,12.553 14.33,6.65 -3,6.089 h -30.26 v -5.245 l 10.12,-7.588 23.98,-57.798 16.21,-4.777 26.6,64.542 9.56,4.777 z m -44.68,-60.608 -11.61,28.103 h 23.04 z m 111.48,60.608 h -59.77 v -5.245 l 8.81,-6.932 v -52.646 l -10.4,-2.716 3.09,-6.089 h 33.16 v 5.245 l -8.9,6.932 v 54.332 h 21.08 l 14.52,-20.983 5.15,2.154 v 27.635 z m 55.63,-74.565 c 6.99,0 13.18,1.561 18.55,4.684 5.43,3.06 9.61,7.338 12.55,12.833 3,5.496 4.49,11.71 4.49,18.642 0,7.119 -2.24,13.707 -6.74,19.765 -4.43,5.995 -9.96,10.773 -16.58,14.332 -6.62,3.498 -12.93,5.246 -18.92,5.246 -2.88,0 -5.72,-0.156 -8.53,-0.468 -4.68,-0.313 -8.27,-0.469 -10.77,-0.469 h -14.8 v -5.245 l 8.8,-6.932 v -52.178 l -10.39,-3.184 3.09,-6.089 h 13.21 c 5.74,0 11.36,-0.188 16.86,-0.562 4.24,-0.25 7.3,-0.375 9.18,-0.375 z m -3.94,66.79 c 3.94,0 7.5,-1.124 10.68,-3.372 3.25,-2.248 5.78,-5.371 7.59,-9.368 1.87,-3.996 2.81,-8.493 2.81,-13.489 0,-5.995 -0.9,-11.397 -2.72,-16.206 -1.74,-4.871 -4.46,-8.743 -8.15,-11.615 -3.62,-2.935 -8.11,-4.403 -13.48,-4.403 -2.82,0 -5.41,0.749 -7.78,2.248 v 54.425 c 3.19,1.187 6.84,1.78 10.96,1.78 z m 93.2,-67.727 c 7.19,0 13.52,1.593 19.02,4.778 5.5,3.185 9.74,7.587 12.74,13.208 3,5.62 4.5,11.99 4.5,19.11 0,7.306 -2.28,14.051 -6.84,20.233 -4.56,6.183 -10.21,11.085 -16.96,14.707 -6.68,3.56 -13.05,5.34 -19.11,5.34 -7.18,0 -13.52,-1.561 -19.01,-4.684 -5.44,-3.185 -9.68,-7.588 -12.74,-13.208 -3,-5.621 -4.5,-11.991 -4.5,-19.11 0,-7.307 2.25,-14.051 6.74,-20.234 4.56,-6.245 10.22,-11.147 16.96,-14.707 6.74,-3.622 13.15,-5.433 19.2,-5.433 z m -5.43,10.773 c -3.5,0 -6.71,1.093 -9.65,3.278 -2.87,2.186 -5.15,5.184 -6.84,8.993 -1.68,3.81 -2.53,8.088 -2.53,12.834 0,5.62 0.85,10.772 2.53,15.456 1.75,4.621 4.34,8.337 7.78,11.147 3.5,2.748 7.8,4.122 12.93,4.122 3.43,0 6.58,-1.093 9.46,-3.278 2.93,-2.186 5.24,-5.184 6.93,-8.993 1.68,-3.81 2.53,-8.088 2.53,-12.834 0,-5.683 -0.85,-10.835 -2.53,-15.456 -1.69,-4.621 -4.28,-8.306 -7.78,-11.054 -3.43,-2.81 -7.71,-4.215 -12.83,-4.215 z M 1438,471.854 h -33.16 v -5.246 l 8.81,-6.932 v -44.964 l -23.23,57.048 h -8.15 l -23.61,-57.516 v 47.212 l 10.4,4.122 -3,6.089 h -24.26 v -5.246 l 8.8,-6.932 v -51.053 l -10.39,-4.403 3.09,-6.089 h 26.32 l 21.36,52.084 21.17,-52.084 h 27.35 v 5.246 l -8.9,6.932 v 52.552 l 10.4,3.091 z" />
    </g>
  </g>
</svg>
