<svg width="24" height="24" viewBox="0 0 24 24" fill="none" xmlns="http://www.w3.org/2000/svg">
<g clip-path="url(#clip0)">
<path d="M12.4219 4.5C15.4828 4.5 17.9859 4.55156 20.3016 4.65469H20.3672C21.45 4.65469 22.3359 5.68594 22.3359 6.95625V7.00781L22.3406 7.05938C22.4484 8.65313 22.5 10.3078 22.5 11.9766C22.5047 13.6453 22.4484 15.3 22.3406 16.8937L22.3359 16.9453V16.9969C22.3359 17.6438 22.1156 18.2438 21.7078 18.6891C21.3422 19.0922 20.8641 19.3172 20.3672 19.3172H20.2922C17.8125 19.4344 15.1922 19.4953 12.4922 19.4953H11.9953H12H11.4891C8.77968 19.4953 6.15937 19.4344 3.69844 19.3219H3.62344C3.12656 19.3219 2.65312 19.0969 2.2875 18.6937C1.88437 18.2484 1.65937 17.6484 1.65937 17.0016V16.95L1.65469 16.8984C1.54219 15.3 1.49062 13.6453 1.5 11.9906V11.9813C1.49531 10.3266 1.54687 8.67656 1.65469 7.07812L1.65937 7.02656V6.975C1.65937 5.7 2.54062 4.66406 3.62344 4.66406H3.68906C6.00937 4.55625 8.5125 4.50937 11.5734 4.50937H12.4219V4.5ZM12.4219 3H11.5781C8.87812 3 6.225 3.0375 3.62812 3.15469C1.71562 3.15469 0.164061 4.85625 0.164061 6.96563C0.0468738 8.64375 -0.00468869 10.3125 -1.19186e-06 11.9859C-0.00468869 13.6594 0.0421863 15.3281 0.159374 17.0016C0.159374 19.1109 1.71094 20.8266 3.62344 20.8266C6.19219 20.9484 8.8125 21.0047 11.4891 21.0047H12.5016C15.1781 21.0047 17.7984 20.9484 20.3719 20.8266C22.2891 20.8266 23.8406 19.1109 23.8406 17.0016C23.9531 15.3281 24.0047 13.6547 24 11.9813C24.0047 10.3078 23.9531 8.63906 23.8406 6.96094C23.8406 4.85156 22.2891 3.15938 20.3719 3.15938C17.775 3.0375 15.1266 3 12.4219 3V3Z" fill="#303030"/>
<path d="M9.70312 16.5844V7.37812L16.5 11.9812L9.70312 16.5844Z" fill="#303030"/>
</g>
<defs>
<clipPath id="clip0">
<rect width="24" height="24" fill="#303030"/>
</clipPath>
</defs>
</svg>
